<svg width="44" height="30" viewBox="0 0 44 30" fill="none" xmlns="http://www.w3.org/2000/svg">
<g clip-path="url(#clip0_110_159)">
<path d="M9.64803 0C4.3194 0 0 6.15988 0 13.7599C0 20.642 3.54391 26.3458 8.16926 27.3594L7.83568 25.5476C4.98652 24.2024 2.89589 19.7614 2.89589 14.4906C2.89589 8.15546 5.91924 3.01764 9.64803 3.01764C13.3768 3.01764 16.4023 8.15546 16.4023 14.4906C16.4023 19.7699 14.3031 24.2214 11.4455 25.556L11.114 27.3636C15.7479 26.3563 19.2982 20.6483 19.2982 13.7599C19.2939 6.15353 14.9745 0 9.64803 0ZM7.83781 23.5562L8.23513 25.7144L8.54957 27.4312C9.27145 27.548 10.0076 27.548 10.7295 27.4312L11.0439 25.7186L11.4412 23.5541L7.83781 23.5562Z" fill="white"/>
<path d="M11.4413 23.5563L11.044 25.7208L10.7295 27.4334L10.277 29.8914H9.00218L8.54965 27.4313L8.23521 25.7144L7.83789 23.5563H11.4413Z" fill="white"/>
<path d="M31.8522 27.5199H30.6497L25.6908 10.0813L20.734 27.5199H19.5293L25.2658 0H26.1157L31.8522 27.5199Z" fill="white"/>
<path d="M43.5001 0L43.3428 0.874249L37.9611 2.84659L36.988 27.5199H35.7833L34.8124 2.84659L29.4307 0.874249L29.2734 0H43.5001Z" fill="white"/>
</g>
<defs>
<clipPath id="clip0_110_159">
<rect width="43.5" height="30" fill="white"/>
</clipPath>
</defs>
</svg>
