<svg width="40" height="28" viewBox="0 0 40 28" fill="none" xmlns="http://www.w3.org/2000/svg">
<g clip-path="url(#clip0_347_39)">
<path d="M8.87176 0C3.97187 0 0 5.66426 0 12.6528C0 18.9812 3.25877 24.226 7.51196 25.158L7.20522 23.492C4.58531 22.255 2.66289 18.1714 2.66289 13.3247C2.66289 7.49927 5.44298 2.77484 8.87176 2.77484C12.3005 2.77484 15.0825 7.49927 15.0825 13.3247C15.0825 18.1792 13.1523 22.2725 10.5246 23.4998L10.2198 25.1619C14.4808 24.2357 17.7454 18.987 17.7454 12.6528C17.7415 5.65842 13.7696 0 8.87176 0ZM7.20718 21.6609L7.57253 23.6454L7.86167 25.2241C8.52547 25.3315 9.20237 25.3315 9.86616 25.2241L10.1553 23.6493L10.5207 21.6589L7.20718 21.6609Z" fill="white"/>
<path d="M10.5207 21.6609L10.1554 23.6512L9.86625 25.226L9.45013 27.4863H8.27789L7.86177 25.2241L7.57262 23.6454L7.20728 21.6609H10.5207Z" fill="white"/>
<path d="M29.2897 25.3056H28.1839L23.624 9.27018L19.066 25.3056H17.9583L23.2332 0H24.0147L29.2897 25.3056Z" fill="white"/>
<path d="M39.9999 0L39.8554 0.803907L34.9066 2.61756L34.0118 25.3056H32.9041L32.0113 2.61756L27.0625 0.803907L26.918 0H39.9999Z" fill="white"/>
</g>
<defs>
<clipPath id="clip0_347_39">
<rect width="40" height="27.5862" fill="white"/>
</clipPath>
</defs>
</svg>
