<svg width="24" height="24" viewBox="0 0 24 24" fill="none" xmlns="http://www.w3.org/2000/svg">
<path d="M6.76 4.84005L4.96 3.05005L3.55 4.46005L5.34 6.25005L6.76 4.84005ZM4 10.5H1V12.5001H4V10.5ZM13 0.550049H11V3.50005H13V0.550049V0.550049ZM20.45 4.46005L19.04 3.05005L17.25 4.84005L18.66 6.25005L20.45 4.46005ZM17.24 18.1601L19.03 19.9601L20.44 18.5501L18.64 16.7601L17.24 18.1601ZM20 10.5V12.5001H23V10.5H20ZM12 5.50005C8.69 5.50005 6 8.19005 6 11.5C6 14.8101 8.69 17.5001 12 17.5001C15.31 17.5001 18 14.8101 18 11.5C18 8.19005 15.31 5.50005 12 5.50005ZM11 22.4501H13V19.5001H11V22.4501ZM3.55 18.5401L4.96 19.9501L6.75 18.1501L5.34 16.7401L3.55 18.5401Z" fill="#989898"/>
</svg>
