<svg xmlns="http://www.w3.org/2000/svg">
<defs>
<font id="BlackMango-Regular" horiz-adv-x="0" >
  <font-face 
    font-family="Black Mango"
    font-weight="400"
    font-stretch="normal"
    units-per-em="1000"
    panose-1="2 2 10 3 6 3 3 6 4 3"
    ascent="800"
    descent="-200"
    x-height="578"
    cap-height="702"
    bbox="-431 -317 1162 972"
    underline-thickness="14"
    underline-position="-114"
    unicode-range="U+0020-2212"
  />
<missing-glyph horiz-adv-x="533" 
d="M387 328q-56 -2 -104 15.5t-48 52.5q0 22 22.5 36t49.5 14q31 0 52.5 -15.5t21.5 -37.5q0 -15 -12.5 -25.5t-36.5 -10.5t-37 11.5t-13 25.5q0 13 10 20t22 7q24 0 24 -13v-2q0 -4 -2.5 -6t-5.5 -2q2 0 2 3q0 2 -2.5 4t-5.5 2q-8 0 -8 -9q0 -10 15 -10q8 0 14.5 4.5
t6.5 12.5q0 12 -12 19t-28 7q-17 0 -29 -9t-12 -25q0 -32 36 -49t83 -16zM167 85.5q-28 14.5 -28 41.5q0 35 41.5 54.5t98.5 19.5h18q-4 7 -4 17q0 17 8.5 36.5t21.5 42.5q2 5 6 13t2 8q-3 0 -14.5 -16.5t-23.5 -41t-18 -50.5l-14 1q-19 0 -28 -3q16 32 44 82q14 24 13 24
q-4 0 -27.5 -31t-47.5 -76q-31 -6 -56.5 -19.5t-36.5 -25.5l-2 3q77 65 122 141q-32 -44 -86 -91t-84 -47q-13 0 -20 9.5t-7 28.5q0 16 5 35t14 35q21 40 55 70t59 30q29 0 46 -8.5t17 -20.5q0 -9 -8.5 -17.5t-23.5 -14.5l-30 5q32 32 32 44q0 4 -5 4q-17 0 -45 -32.5
t-50 -73.5t-22 -60q0 -12 10 -12q20 0 66 39.5t75 81.5q8 12 22 12q6 0 9.5 -2.5t1.5 -5.5q-3 -7 -8.5 -16t-10.5 -19q13 16 24 28t16 12q8 0 12 -1t3 -4l-10 -20q21 27 32 27q8 0 23.5 -4.5t12.5 -10.5q-21 -40 -32 -65.5t-7 -43.5q53 -10 53 -25q0 -5 -2.5 -9.5t-6.5 -4.5
q-15 0 -33 6.5t-30 19.5q3 -1 7.5 -2t9.5 -3q5 -6 17 -10.5t22.5 -6t10.5 1.5t-15.5 10t-38 12.5t-45.5 5.5q-47 0 -71 -20t-24 -46q0 -21 16.5 -34t40.5 -13q19 0 31 7.5t12 21.5q0 8 -6.5 13.5t-19.5 5.5q-8 0 -12 -3t-4 -7t3.5 -6.5t8.5 -2.5q4 0 4 3q0 5 -6 5q2 3 6 3
q5 0 9 -3t4 -8q0 -6 -6.5 -10t-18.5 -4q-19 0 -31.5 9.5t-12.5 25.5t13.5 28t37.5 12t42.5 -12.5t18.5 -34.5q0 -25 -23.5 -38.5t-57.5 -13.5q-36 0 -64 14.5zM354 207.5q-10 8.5 -7 24.5q6 27 24 59t42.5 54t49.5 22q10 0 17.5 -3.5t7.5 -6.5q0 -10 -17.5 -20t-36.5 -13

<glyph glyph-name=".notdef" horiz-adv-x="533" 
d="M387 328q-56 -2 -104 15.5t-48 52.5q0 22 22.5 36t49.5 14q31 0 52.5 -15.5t21.5 -37.5q0 -15 -12.5 -25.5t-36.5 -10.5t-37 11.5t-13 25.5q0 13 10 20t22 7q24 0 24 -13v-2q0 -4 -2.5 -6t-5.5 -2q2 0 2 3q0 2 -2.5 4t-5.5 2q-8 0 -8 -9q0 -10 15 -10q8 0 14.5 4.5
t6.5 12.5q0 12 -12 19t-28 7q-17 0 -29 -9t-12 -25q0 -32 36 -49t83 -16zM167 85.5q-28 14.5 -28 41.5q0 35 41.5 54.5t98.5 19.5h18q-4 7 -4 17q0 17 8.5 36.5t21.5 42.5q2 5 6 13t2 8q-3 0 -14.5 -16.5t-23.5 -41t-18 -50.5l-14 1q-19 0 -28 -3q16 32 44 82q14 24 13 24
q-4 0 -27.5 -31t-47.5 -76q-31 -6 -56.5 -19.5t-36.5 -25.5l-2 3q77 65 122 141q-32 -44 -86 -91t-84 -47q-13 0 -20 9.5t-7 28.5q0 16 5 35t14 35q21 40 55 70t59 30q29 0 46 -8.5t17 -20.5q0 -9 -8.5 -17.5t-23.5 -14.5l-30 5q32 32 32 44q0 4 -5 4q-17 0 -45 -32.5
t-50 -73.5t-22 -60q0 -12 10 -12q20 0 66 39.5t75 81.5q8 12 22 12q6 0 9.5 -2.5t1.5 -5.5q-3 -7 -8.5 -16t-10.5 -19q13 16 24 28t16 12q8 0 12 -1t3 -4l-10 -20q21 27 32 27q8 0 23.5 -4.5t12.5 -10.5q-21 -40 -32 -65.5t-7 -43.5q53 -10 53 -25q0 -5 -2.5 -9.5t-6.5 -4.5
q-15 0 -33 6.5t-30 19.5q3 -1 7.5 -2t9.5 -3q5 -6 17 -10.5t22.5 -6t10.5 1.5t-15.5 10t-38 12.5t-45.5 5.5q-47 0 -71 -20t-24 -46q0 -21 16.5 -34t40.5 -13q19 0 31 7.5t12 21.5q0 8 -6.5 13.5t-19.5 5.5q-8 0 -12 -3t-4 -7t3.5 -6.5t8.5 -2.5q4 0 4 3q0 5 -6 5q2 3 6 3
q5 0 9 -3t4 -8q0 -6 -6.5 -10t-18.5 -4q-19 0 -31.5 9.5t-12.5 25.5t13.5 28t37.5 12t42.5 -12.5t18.5 -34.5q0 -25 -23.5 -38.5t-57.5 -13.5q-36 0 -64 14.5zM354 207.5q-10 8.5 -7 24.5q6 27 24 59t42.5 54t49.5 22q10 0 17.5 -3.5t7.5 -6.5q0 -10 -17.5 -20t-36.5 -13
q-19 -27 -33.5 -58.5t-14.5 -47.5q0 -10 7 -10q14 0 28 10.5t20 22.5h17q-8 -14 -32 -28t-45 -14q-17 0 -27 8.5zM469.5 341.5q11.5 6.5 14.5 12.5t-4 6q-8 0 -18.5 -7.5t-20.5 -20.5q17 3 28.5 9.5z" />
    <glyph glyph-name=".null" 
 />
    <glyph glyph-name="nonmarkingreturn" horiz-adv-x="333" 
 />
    <glyph glyph-name="space" unicode=" " horiz-adv-x="230" 
 />
    <glyph glyph-name="exclam" unicode="!" horiz-adv-x="196" 
d="M90 219q0 109 -7 180t-20 153q-8 51 -11.5 82.5t-3.5 67.5h100q0 -37 -4 -70t-12 -80q-13 -77 -20.5 -150t-7.5 -183h-14zM60.5 -1.5q-15.5 15.5 -15.5 38.5q0 22 15.5 37.5t37.5 15.5t37.5 -15.5t15.5 -37.5q0 -23 -15.5 -38.5t-37.5 -15.5t-37.5 15.5z" />
    <glyph glyph-name="quotedbl" unicode="&#x22;" horiz-adv-x="286" 
d="M59 590h-14v211h80zM175 590h-14v211h80z" />
    <glyph glyph-name="numbersign" unicode="#" horiz-adv-x="675" 
d="M630 385v-16h-192l-34 -86h189v-17h-195l-83 -213h-17l83 213h-133l-83 -213h-17l83 213h-186v17h193l33 86h-189v16h195l82 209h16l-81 -209h133l82 209h16l-81 -209h186zM254 283h134l33 86h-133z" />
    <glyph glyph-name="dollar" unicode="$" horiz-adv-x="656" 
d="M533 47q-76 -55 -202 -60v-53h-14v53h-10q-128 0 -275 51l9 70q162 -101 276 -104v330l-56 25q-77 33 -123 57t-78 55.5t-34 71.5q-4 57 33.5 96.5t104.5 59t149 19.5h4v51h14v-51q116 -3 233 -39l-10 -70q-58 36 -116 59.5t-107 30.5v-273q83 -38 137 -68.5t92.5 -71.5
t41.5 -91q7 -93 -69 -148zM131 538q28 -27 69.5 -49.5t116.5 -56.5v269q-9 1 -26 1q-86 0 -137 -28t-51 -78q0 -31 28 -58zM331 4q82 2 133 39.5t51 97.5q0 10 -4 32q-11 47 -57 83t-123 72v-324z" />
    <glyph glyph-name="percent" unicode="%" horiz-adv-x="796" 
d="M196 -67h-14l414 835h14zM77 416.5q-38 52.5 -38 131.5q0 80 38 131.5t127 51.5t127 -51.5t38 -131.5q0 -79 -38.5 -131.5t-126.5 -52.5q-89 0 -127 52.5zM289 415q30 45 30 133q0 87 -30 131.5t-85 44.5t-85 -44.5t-30 -131.5q0 -88 30 -133t85 -45t85 45zM459.5 30
q-38.5 53 -38.5 132q0 80 38 131.5t127 51.5t127 -51.5t38 -131.5q0 -79 -38 -132t-127 -53q-88 0 -126.5 53zM671 29q30 45 30 133q0 87 -30 131.5t-85 44.5t-85 -44.5t-30 -131.5q0 -88 30 -133t85 -45t85 45z" />
    <glyph glyph-name="ampersand" unicode="&#x26;" horiz-adv-x="725" 
d="M161.5 10q-57.5 26 -87 70t-29.5 97q0 67 50 125.5t148 85.5l-15 20q-58 74 -58 141q0 48 28.5 86.5t76 59.5t102.5 21q80 0 131.5 -42t51.5 -122h-77q0 49 -18.5 82.5t-48 50.5t-61.5 17q-46 0 -80 -31t-34 -84q0 -66 57 -136l245 -310q51 81 51 182h74q0 -58 -25 -115
t-70 -104l82 -104h-104l-44 55q-45 -34 -98.5 -52.5t-108.5 -18.5q-81 0 -138.5 26zM407 16.5q47 20.5 85 57.5l-233 294q-62 -31 -94.5 -83t-32.5 -109q0 -48 21 -89t61 -66t95 -25q51 0 98 20.5z" />
    <glyph glyph-name="quotesingle" unicode="'" horiz-adv-x="195" 
d="M79 590h-14v211h78z" />
    <glyph glyph-name="parenleft" unicode="(" horiz-adv-x="382" 
d="M337 -123q-292 0 -292 448q0 439 284 439v-14q-63 0 -102 -41t-57.5 -133.5t-18.5 -250.5q0 -159 19.5 -254t60 -137.5t106.5 -42.5v-14z" />
    <glyph glyph-name="parenright" unicode=")" horiz-adv-x="394" 
d="M58 -109q66 0 106.5 42.5t59.5 137.5t19 254q0 158 -18.5 250.5t-57 133.5t-101.5 41v14q283 0 283 -439q0 -448 -291 -448v14z" />
    <glyph glyph-name="asterisk" unicode="*" horiz-adv-x="334" 
d="M169 588h112v-9h-114l82 -82l-7 -6l-79 79v-111h-9v114l-80 -80l-6 6l80 80h-112v9h109l-76 76l7 6l78 -78v112h9v-110l78 78l6 -6z" />
    <glyph glyph-name="plus" unicode="+" horiz-adv-x="457" 
d="M235 320h177v-14h-177v-180h-13v180h-177v14h177v173h13v-173z" />
    <glyph glyph-name="comma" unicode="," horiz-adv-x="226" 
d="M59 -129h-14l56 211h80z" />
    <glyph glyph-name="hyphen" unicode="-" horiz-adv-x="388" 
d="M323 300h-258v14h258v-14z" />
    <glyph glyph-name="period" unicode="." horiz-adv-x="198" 
d="M60.5 -1.5q-15.5 15.5 -15.5 38.5t15.5 38.5t38.5 15.5t38.5 -15.5t15.5 -38.5q0 -22 -15.5 -38t-38.5 -16t-38.5 15.5z" />
    <glyph glyph-name="slash" unicode="/" horiz-adv-x="396" 
d="M76 -144h-17l261 916h17z" />
    <glyph glyph-name="zero" unicode="0" horiz-adv-x="750" 
d="M121.5 88q-76.5 105 -76.5 264t76 262.5t254 103.5t254 -103.5t76 -262.5t-76.5 -264t-253.5 -105t-253.5 105zM545.5 86.5q59.5 90.5 59.5 265.5q0 173 -59.5 262t-170.5 89t-170.5 -89t-59.5 -262q0 -175 59.5 -265.5t170.5 -90.5t170.5 90.5z" />
    <glyph glyph-name="one" unicode="1" horiz-adv-x="302" 
d="M257 0h-100v663l-112 -55v13l196 81h16v-702z" />
    <glyph glyph-name="two" unicode="2" horiz-adv-x="646" 
d="M33 0q0 115 54 197t127 131.5t184 105.5q62 31 97 51.5t57 44.5t22 51q0 47 -44 74.5t-118 27.5q-70 0 -155 -26.5t-175 -80.5l-19 87q152 55 283 55q114 0 182.5 -44.5t68.5 -127.5q0 -51 -34 -93.5t-84 -75t-137 -80.5q-91 -50 -146.5 -86.5t-97.5 -86t-50 -110.5
q185 0 306.5 18.5t219.5 68.5l23 -100z" />
    <glyph glyph-name="three" unicode="3" horiz-adv-x="597" 
d="M45 15l19 100q48 -47 99 -69.5t97 -22.5q68 0 118.5 22t77.5 58.5t27 79.5q0 62 -56 118.5t-166 88.5l176 225h-368v87h443v-12l-187 -236q112 -20 169.5 -78t57.5 -133q0 -70 -41.5 -128t-117.5 -91.5t-176 -33.5q-84 0 -172 25z" />
    <glyph glyph-name="four" unicode="4" horiz-adv-x="705" 
d="M555 0h-100v222h-410v11l470 469h40v-464h105v-16h-105v-222zM455 620l-383 -382h383v382z" />
    <glyph glyph-name="five" unicode="5" horiz-adv-x="647" 
d="M147.5 0q-65.5 19 -123.5 58l41 100q65 -76 136 -113.5t136 -37.5q54 0 97 23.5t68 68.5t25 107q0 88 -61 138.5t-164 50.5q-54 0 -112 -16t-126 -48l80 371h428v-87h-433l-45 -210q54 29 114.5 44t119.5 15q76 0 137.5 -23.5t98.5 -72.5t37 -121q0 -80 -43.5 -140.5
t-117.5 -93t-161 -32.5q-66 0 -131.5 19z" />
    <glyph glyph-name="six" unicode="6" horiz-adv-x="720" 
d="M210.5 24q-76.5 44 -121 129.5t-44.5 205.5q0 115 48 196t129.5 122.5t179.5 41.5q119 0 232 -62l-13 -84q-65 65 -128 97.5t-119 32.5q-71 0 -122 -42.5t-77.5 -115.5t-26.5 -165q0 -21 1 -32q16 66 57.5 112.5t95.5 70.5t109 24q69 0 129.5 -32.5t97.5 -97t37 -153.5
q0 -93 -42 -159t-109.5 -99.5t-141.5 -33.5q-95 0 -171.5 44zM474 26q46 31 74.5 90.5t28.5 141.5q0 90 -27.5 153.5t-72 95t-95.5 31.5q-54 0 -105.5 -34t-85.5 -99.5t-35 -155.5q11 -82 44 -139.5t79 -86t96 -28.5q53 0 99 31z" />
    <glyph glyph-name="seven" unicode="7" horiz-adv-x="566" 
d="M150 0q-1 14 -1 41q0 151 49.5 267t120 189.5t142.5 113.5v4h-435v87h518v-49q-65 -35 -129 -98t-116 -200.5t-49 -354.5h-100z" />
    <glyph glyph-name="eight" unicode="8" horiz-adv-x="684" 
d="M190 8q-67 25 -102.5 71t-35.5 106q0 78 59.5 129t158.5 64q-76 0 -124.5 46.5t-48.5 119.5q0 82 61 128t190 46q119 0 183.5 -47t64.5 -127q0 -48 -23 -86t-62.5 -59t-85.5 -21q97 -13 151.5 -63.5t54.5 -128.5q0 -94 -72.5 -148.5t-210.5 -54.5q-91 0 -158 25z
M461.5 428.5q31.5 44.5 31.5 115.5q0 72 -29 116t-116 44q-68 0 -101 -22.5t-41.5 -55.5t-8.5 -82q0 -72 32.5 -116t118.5 -44q82 0 113.5 44.5zM491.5 47.5q39.5 52.5 39.5 136.5q0 76 -38.5 130t-144.5 54q-196 0 -196 -184q0 -85 39.5 -137t154.5 -52q106 0 145.5 52.5z
" />
    <glyph glyph-name="nine" unicode="9" horiz-adv-x="733" 
d="M522.5 678q76.5 -44 121 -129.5t44.5 -205.5q0 -115 -48 -196t-129.5 -122.5t-179.5 -41.5q-119 0 -232 62l13 84q65 -65 128 -97.5t119 -32.5q71 0 122 42.5t77.5 115.5t26.5 165q0 21 -1 32q-17 -65 -58.5 -112t-95.5 -71t-109 -24q-68 0 -128.5 32.5t-97.5 97
t-37 153.5q0 93 42 159t109 99.5t142 33.5q95 0 171.5 -44zM259 676q-46 -31 -74.5 -90.5t-28.5 -141.5q0 -90 27.5 -153.5t72 -95t95.5 -31.5q54 0 105.5 34t85.5 100t35 155q-11 83 -44 140t-79 85.5t-96 28.5q-53 0 -99 -31z" />
    <glyph glyph-name="colon" unicode=":" horiz-adv-x="200" 
d="M55.5 -1.5q-15.5 15.5 -15.5 38.5t15.5 38.5t38.5 15.5t38.5 -15.5t15.5 -38.5q0 -22 -15.5 -38t-38.5 -16t-38.5 15.5zM55.5 307.5q-15.5 15.5 -15.5 38.5t15.5 38.5t38.5 15.5t38.5 -15.5t15.5 -38.5q0 -22 -15.5 -38t-38.5 -16t-38.5 15.5z" />
    <glyph glyph-name="semicolon" unicode=";" horiz-adv-x="247" 
d="M91.5 307.5q-15.5 15.5 -15.5 38.5t15.5 38.5t38.5 15.5t38.5 -15.5t15.5 -38.5q0 -22 -15.5 -38t-38.5 -16t-38.5 15.5zM63 -129h-14l56 211h80z" />
    <glyph glyph-name="less" unicode="&#x3c;" horiz-adv-x="433" 
d="M58 324l330 216v-14l-311 -204l311 -208v-14l-330 220v4z" />
    <glyph glyph-name="equal" unicode="=" horiz-adv-x="445" 
d="M399 254h-367v13h367v-13zM399 355h-367v13h367v-13z" />
    <glyph glyph-name="greater" unicode="&#x3e;" horiz-adv-x="420" 
d="M45 526v14l330 -216v-4l-330 -220v14l311 208z" />
    <glyph glyph-name="question" unicode="?" horiz-adv-x="592" 
d="M244 200q-16 25 -16 50q0 37 25 68.5t77 78.5q59 53 89 92.5t30 88.5q0 59 -34.5 93.5t-92.5 34.5q-64 0 -100.5 -41t-36.5 -101q0 -46 20.5 -77t58.5 -38v-10q-20 -5 -34 -5q-43 0 -76.5 18t-52 48t-18.5 64q0 44 29 79.5t82 56t124 20.5q68 0 120.5 -20.5t81.5 -57
t29 -83.5q0 -45 -25 -81t-60 -61.5t-91 -58.5q-64 -38 -94.5 -64t-30.5 -59q0 -15 9 -35h-13zM222 -1q-16 16 -16 38q0 23 15.5 38.5t38.5 15.5t38.5 -15.5t15.5 -38.5t-15.5 -38.5t-38.5 -15.5q-22 0 -38 16z" />
    <glyph glyph-name="at" unicode="@" horiz-adv-x="953" 
d="M277 -2q-110 50 -170.5 138.5t-60.5 199.5q0 105 57.5 192.5t162 139t239.5 51.5q134 0 224.5 -43t134 -112t43.5 -148q0 -73 -36 -138.5t-103 -106t-154 -40.5q-42 0 -68 21t-26 60q0 14 6 32h-6q-28 -40 -63.5 -61t-69.5 -21q-50 0 -80.5 34.5t-30.5 86.5q0 70 38 126
t106.5 88t156.5 32q56 0 114 -14q-75 -178 -98 -285q-5 -23 -5 -38q0 -45 41 -45q51 0 92.5 36.5t65 96.5t23.5 129q0 80 -33.5 148t-101 109t-164.5 41q-111 0 -197 -51t-133.5 -139.5t-47.5 -199.5q0 -101 45 -182t130 -127t201 -46q93 0 185.5 41.5t169.5 118.5l22 -87
q-76 -40 -172 -63.5t-184 -23.5q-143 0 -253 50zM487.5 237q34.5 30 53.5 82l72 183q-24 4 -39 4q-51 0 -98.5 -22t-79.5 -63.5t-38 -95.5q-3 -16 -3 -33q0 -37 16.5 -61t49.5 -24q32 0 66.5 30z" />
    <glyph glyph-name="A" unicode="A" horiz-adv-x="721" 
d="M30 0l280 702h100l281 -702h-55q-13 82 -25 137t-36 117l-22 56h-299l-124 -310h-100zM403 685l-144 -361h288z" />
    <glyph glyph-name="B" unicode="B" horiz-adv-x="640" 
d="M65 0v702h279q70 0 117 -25t69.5 -64.5t22.5 -83.5q0 -85 -50 -124t-112 -43v-4q77 -3 143 -38t66 -118q0 -51 -26.5 -97.5t-79.5 -75.5t-127 -29h-302zM317 366q29 0 62 15t57 50t24 91q0 41 -17.5 79t-53.5 62.5t-88 24.5h-136v-322h152zM313 14q59 0 101.5 26.5
t64 67.5t21.5 85q0 87 -57 123t-126 36h-152v-338h148z" />
    <glyph glyph-name="C" unicode="C" horiz-adv-x="698" 
d="M238 28.5q-89 43.5 -138.5 127t-49.5 200.5q0 116 51 199t139.5 125.5t199.5 42.5q106 0 221 -41l-5 -71q-20 11 -58 37q-49 31 -76.5 45t-55.5 14q-96 0 -167.5 -42.5t-110 -121.5t-38.5 -187q0 -99 43 -180.5t118 -128t168 -46.5q25 0 52.5 14.5t66.5 41.5q38 26 56 36
l7 -73q-117 -35 -218 -35q-116 0 -205 43.5z" />
    <glyph glyph-name="D" unicode="D" horiz-adv-x="687" 
d="M65 0v702h252q152 0 236 -85t84 -253q0 -124 -46.5 -206t-123 -120t-168.5 -38h-234zM254 15q91 0 153 31.5t96 108.5t34 209q0 169 -64.5 246.5t-201.5 76.5h-106v-672h89z" />
    <glyph glyph-name="E" unicode="E" horiz-adv-x="651" 
d="M165 14q152 0 247 11.5t179 44.5v-70h-526v702h511v-70q-74 31 -169.5 43.5t-241.5 12.5v-286h358v-14h-358v-374z" />
    <glyph glyph-name="F" unicode="F" horiz-adv-x="576" 
d="M516 632q-62 33 -138 44.5t-213 11.5v-288h283v-14h-283v-386h-100v702h451v-70z" />
    <glyph glyph-name="G" unicode="G" horiz-adv-x="749" 
d="M238.5 29.5q-87.5 44.5 -138 130t-50.5 203.5q0 110 51.5 190t141 121.5t200.5 41.5q117 0 233 -44l-5 -70q-66 49 -131 73.5t-124 24.5q-77 0 -137.5 -39t-94.5 -115t-34 -183q0 -112 40.5 -194t109.5 -125.5t153 -43.5q68 0 136 34v333h100v-326q-132 -56 -253 -56
q-110 0 -197.5 44.5z" />
    <glyph glyph-name="H" unicode="H" horiz-adv-x="682" 
d="M517 405v297h100v-702h-100v390h-352v-390h-100v702h100v-297h352z" />
    <glyph glyph-name="I" unicode="I" horiz-adv-x="230" 
d="M165 0h-100v702h100v-702z" />
    <glyph glyph-name="J" unicode="J" horiz-adv-x="521" 
d="M49 68q96 -67 171 -67q62 0 99 41t37 113v547h100v-525q-6 -98 -87 -145t-199 -47q-60 0 -125 13z" />
    <glyph glyph-name="K" unicode="K" horiz-adv-x="698" 
d="M65 0v702h100v-349l232 192q49 42 83.5 79.5t50.5 77.5h70l-339 -283q82 45 141 45q65 0 89 -57l168 -407h-100l-169 398q-13 30 -48 30q-31 0 -74.5 -22t-87.5 -56l-16 -13v-337h-100z" />
    <glyph glyph-name="L" unicode="L" horiz-adv-x="561" 
d="M65 0v702h100v-689q120 0 200 12.5t152 44.5v-70h-452z" />
    <glyph glyph-name="M" unicode="M" horiz-adv-x="897" 
d="M27 0q47 130 65 266l52 436h100l221 -628l213 628h70l97 -702h-100l-83 608l-205 -608h-67l-237 675l-48 -410q-13 -109 -13 -183q0 -46 4 -82h-69z" />
    <glyph glyph-name="N" unicode="N" horiz-adv-x="690" 
d="M53 0q14 56 18.5 109.5t4.5 127.5v465h78l453 -660v438q0 129 -24 222h61q-24 -93 -24 -222v-480h-89l-441 645v-408q0 -71 5 -126.5t19 -110.5h-61z" />
    <glyph glyph-name="O" unicode="O" horiz-adv-x="754" 
d="M198 32q-74 49 -111 132t-37 185q0 107 37 191t110.5 131.5t179.5 47.5t179.5 -47.5t110.5 -131.5t37 -191q0 -102 -37 -185t-111 -132t-179 -49t-179 49zM549 98.5q55 101.5 55 250.5q0 94 -22.5 174.5t-73.5 131t-131 50.5q-119 0 -173 -103t-54 -253q0 -93 23.5 -173
t74.5 -129.5t129 -49.5q117 0 172 101.5z" />
    <glyph glyph-name="P" unicode="P" horiz-adv-x="619" 
d="M65 0v702h261q87 0 143.5 -27.5t82 -71.5t25.5 -97q0 -60 -33.5 -104.5t-93.5 -69.5t-137 -28h-148v-304h-100zM267 318q76 0 124.5 26.5t70 68.5t21.5 91q0 48 -21 89.5t-68.5 68t-120.5 26.5h-108v-370h102z" />
    <glyph glyph-name="Q" unicode="Q" horiz-adv-x="754" 
d="M687 -174l-309 157h-1q-105 0 -179 49t-111 132t-37 185q0 107 37 191t110.5 131.5t179.5 47.5t179.5 -47.5t110.5 -131.5t37 -191q0 -98 -34.5 -179t-103 -131t-166.5 -55q100 -50 165.5 -66t149.5 -19zM173.5 176q23.5 -80 74.5 -129.5t129 -49.5q117 0 172 101.5
t55 250.5q0 94 -22.5 174.5t-73.5 131t-131 50.5q-119 0 -173 -103t-54 -253q0 -93 23.5 -173z" />
    <glyph glyph-name="R" unicode="R" horiz-adv-x="633" 
d="M590 0h-100l-147 289q-17 35 -54 35q-23 0 -57 -17t-67 -47v-260h-100v702h287q68 0 115 -24t69.5 -63.5t22.5 -85.5q0 -44 -18.5 -85.5t-56 -71.5t-90.5 -39q22 -8 35 -19.5t22 -30.5zM405 366q31 23 47.5 62.5t16.5 83.5q0 48 -20 88t-60.5 64t-98.5 24h-125v-414
q41 34 84 53.5t84 17.5t72 21z" />
    <glyph glyph-name="S" unicode="S" horiz-adv-x="666" 
d="M45 38l8 70q168 -104 284 -104q84 0 137 38t53 100q0 9 -4 31q-9 40 -45 72.5t-83 57t-122 56.5q-77 33 -122.5 57t-77.5 55.5t-35 71.5q-4 57 34 96.5t104.5 59t148.5 19.5q122 0 251 -39l-9 -70q-71 43 -141 68t-122 25q-89 0 -141 -29.5t-48 -82.5q2 -30 30.5 -56
t70.5 -47.5t113 -53.5q90 -41 145.5 -71.5t96 -72.5t44.5 -94q5 -66 -32.5 -113t-106.5 -71t-157 -24q-128 0 -274 51z" />
    <glyph glyph-name="T" unicode="T" horiz-adv-x="627" 
d="M265 688q-61 0 -100.5 -5.5t-69 -17t-72.5 -33.5v70h585v-70q-61 32 -109 44t-134 12v-688h-100v688z" />
    <glyph glyph-name="U" unicode="U" horiz-adv-x="662" 
d="M190 13q-63 28 -99 83.5t-36 136.5v469h101v-518q0 -96 51.5 -140.5t126.5 -44.5q74 0 124.5 44.5t50.5 140.5v518h100v-469q0 -120 -76 -184t-199 -64q-81 0 -144 28z" />
    <glyph glyph-name="V" unicode="V" horiz-adv-x="671" 
d="M626 702l-241 -702h-100l-241 702h100l235 -683l130 380q48 138 48 264q0 26 -1 39h70z" />
    <glyph glyph-name="W" unicode="W" horiz-adv-x="1085" 
d="M1040 702l-241 -702h-100l-157 457l-157 -457h-100l-241 702h100l235 -683l157 457l-78 226h100l235 -683l130 380q48 138 48 264q0 26 -1 39h70z" />
    <glyph glyph-name="X" unicode="X" horiz-adv-x="719" 
d="M692 702l-271 -349l271 -353h-108l-261 339l-141 -181q-33 -42 -51 -77t-31 -81h-55l272 348l-272 354h108l260 -339l126 162q34 44 58 86t40 91h55z" />
    <glyph glyph-name="Y" unicode="Y" horiz-adv-x="583" 
d="M553 702l-204 -390v-312h-100v312l-204 390h100l197 -377l112 215q17 31 23.5 61t6.5 69l-1 32h70z" />
    <glyph glyph-name="Z" unicode="Z" horiz-adv-x="678" 
d="M516 688q-143 0 -239.5 -11.5t-238.5 -44.5v70h593l-495 -688q199 0 308 12t194 44v-70h-620z" />
    <glyph glyph-name="bracketleft" unicode="[" horiz-adv-x="306" 
d="M261 -141h-216v911h216v-11h-116v-889h116v-11z" />
    <glyph glyph-name="backslash" unicode="\" horiz-adv-x="398" 
d="M79 772l261 -916h-18l-261 916h18z" />
    <glyph glyph-name="bracketright" unicode="]" horiz-adv-x="319" 
d="M274 770v-911h-216v11h116v889h-116v11h216z" />
    <glyph glyph-name="asciicircum" unicode="^" horiz-adv-x="530" 
d="M269 675l216 -330h-21l-198 300l-200 -300h-21l220 330h4z" />
    <glyph glyph-name="underscore" unicode="_" horiz-adv-x="470" 
d="M425 -21h-380v13h380v-13z" />
    <glyph glyph-name="a" unicode="a" horiz-adv-x="606" 
d="M94 33.5q-51 48.5 -51 127.5q0 119 109.5 189t290.5 112q0 60 -29 91t-79 31q-54 0 -113 -32.5t-106 -86.5l-20 77q54 25 116 39.5t120 14.5q95 0 153 -42.5t58 -135.5v-418h-100v89q-44 -48 -100 -76t-111 -28q-87 0 -138 48.5zM361.5 41.5q47.5 24.5 81.5 61.5v345
q-161 -35 -230.5 -103t-69.5 -169q0 -77 36 -118t92 -41q43 0 90.5 24.5z" />
    <glyph glyph-name="b" unicode="b" horiz-adv-x="595" 
d="M244.5 11.5q-47.5 24.5 -93.5 75.5v-87h-100v702h100v-301h2q28 94 84 144.5t120 50.5q62 0 108 -38t70.5 -102.5t24.5 -140.5q0 -92 -29.5 -167t-80.5 -118t-113 -43q-45 0 -92.5 24.5zM388.5 60q36.5 38 56 106t19.5 155q0 104 -35.5 170.5t-100.5 66.5
q-36 0 -72 -24.5t-64 -71.5t-41 -112v-246q38 -41 77.5 -61.5t74.5 -20.5q49 0 85.5 38z" />
    <glyph glyph-name="c" unicode="c" horiz-adv-x="592" 
d="M209.5 23.5q-80.5 38.5 -128 111t-47.5 171.5q0 133 82.5 211.5t246.5 78.5q97 0 193 -30l-13 -70q-48 40 -101 61t-99 21q-64 0 -111.5 -34t-72.5 -96.5t-25 -145.5q0 -89 27.5 -156t78 -103.5t116.5 -36.5q88 0 191 88l15 -70q-82 -39 -175 -39q-97 0 -177.5 38.5z" />
    <glyph glyph-name="d" unicode="d" horiz-adv-x="618" 
d="M152.5 18q-52.5 33 -85.5 98.5t-33 158.5q0 99 39 171t108 109.5t158 37.5q52 0 111 -15v124h100v-702h-100v128q-22 -69 -73 -106t-113 -37q-59 0 -111.5 33zM396 57q43 48 54 135v371q-45 12 -85 12q-71 0 -124.5 -35t-83 -102.5t-29.5 -163.5q0 -84 24 -144
t62.5 -90.5t82.5 -30.5q56 0 99 48z" />
    <glyph glyph-name="e" unicode="e" horiz-adv-x="625" 
d="M189 25.5q-71 39.5 -113 111.5t-42 165q0 92 42.5 158.5t110.5 100.5t143 34q67 0 124.5 -27.5t92.5 -81.5t35 -132q0 -32 -9 -70h-439q2 -86 28.5 -150.5t71.5 -99.5t101 -35q53 0 111 36t114 108l21 -70q-56 -44 -116.5 -65.5t-120.5 -21.5q-84 0 -155 39.5zM486 298
q6 33 6 63q0 71 -22 120.5t-59 74.5t-80 25q-49 0 -94 -33t-74 -97t-29 -153h352z" />
    <glyph glyph-name="f" unicode="f" horiz-adv-x="372" 
d="M112 0v564h-109v14h109v15q-25 51 -25 99q0 61 39 91.5t107 30.5q72 0 172 -41l-21 -70q-55 41 -108 63t-90 22q-29 0 -45 -13.5t-16 -40.5q0 -56 86 -156h130v-14h-129v-564h-100z" />
    <glyph glyph-name="g" unicode="g" horiz-adv-x="617" 
d="M39 -227l15 70q109 -70 191 -70q95 0 147 76.5t52 201.5v68h-3q-25 -64 -74.5 -100t-107.5 -36q-57 0 -107 32t-81 100t-31 170q0 89 32.5 159.5t88.5 110t124 39.5q80 0 159 -56v40h100v-471q0 -106 -45.5 -186t-127.5 -123t-189 -43q-68 0 -143 18zM355.5 33.5
q33.5 20.5 57 60.5t31.5 95v332q-70 51 -129 51q-56 0 -96.5 -40t-62 -105t-21.5 -140q0 -83 20 -145.5t55 -95.5t77 -33q35 0 68.5 20.5z" />
    <glyph glyph-name="h" unicode="h" horiz-adv-x="629" 
d="M51 0v702h100v-397h2q20 93 59 158.5t89 98.5t104 33q44 0 80 -21t57.5 -61t21.5 -94v-419h-100l4 421q0 63 -30 99t-75 36q-41 0 -86 -37.5t-80 -114.5t-46 -187v-217h-100z" />
    <glyph glyph-name="i" unicode="i" horiz-adv-x="217" 
d="M67.5 656.5q-16.5 16.5 -16.5 39.5t16.5 39.5t39.5 16.5t39.5 -16.5t16.5 -39.5t-16.5 -39.5t-39.5 -16.5t-39.5 16.5zM157 0h-100v578h100v-578z" />
    <glyph glyph-name="j" unicode="j" horiz-adv-x="275" 
d="M123.5 653.5q-16.5 16.5 -16.5 40.5q0 23 16.5 40t40.5 17q23 0 39.5 -17t16.5 -40q0 -24 -16.5 -40.5t-39.5 -16.5q-24 0 -40.5 16.5zM-164 -139q106 -64 166 -64q70 0 92.5 48.5t22.5 135.5l1 597h100v-476q0 -161 -65.5 -249t-227.5 -88q-51 0 -122 11z" />
    <glyph glyph-name="k" unicode="k" horiz-adv-x="578" 
d="M51 0v702h100v-347l364 207v-68q-53 1 -131.5 -31.5t-159.5 -79.5v-1q35 12 68 12q37 0 65 -15.5t42 -47.5l143 -331h-100l-148 331q-17 36 -54 36q-33 0 -89 -29v-338h-100z" />
    <glyph glyph-name="l" unicode="l" horiz-adv-x="235" 
d="M170 0h-100v702h100v-702z" />
    <glyph glyph-name="m" unicode="m" horiz-adv-x="909" 
d="M51 0v578h100v-239h3q14 78 45 136t73 89t88 31q142 0 142 -218h2q22 105 75 161.5t117 56.5q70 0 109 -49t39 -141v-405h-100v417q0 72 -24 105.5t-58 33.5q-58 0 -102 -65t-57 -187v-304h-100v417q0 74 -24.5 108t-59.5 34q-60 0 -105 -74.5t-63 -203.5v-281h-100z" />
    <glyph glyph-name="n" unicode="n" horiz-adv-x="633" 
d="M530.5 558q38.5 -37 38.5 -109v-449h-100v452q0 55 -21 82.5t-57 27.5t-79.5 -25t-86 -71t-74.5 -107v-359h-100v578h100v-194q60 104 137 157.5t148 53.5q56 0 94.5 -37z" />
    <glyph glyph-name="o" unicode="o" horiz-adv-x="627" 
d="M164 20.5q-63 37.5 -96.5 106.5t-33.5 160q0 92 33.5 162t96.5 108t150 38q84 0 147 -38.5t97 -108t34 -161.5q0 -91 -34 -160t-97 -106.5t-147 -37.5q-87 0 -150 37.5zM411.5 37q41.5 40 63.5 106.5t22 143.5q0 75 -22 142.5t-63.5 109.5t-97.5 42q-60 0 -101.5 -41.5
t-62 -109t-20.5 -143.5q0 -78 20.5 -144t62 -106t101.5 -40q56 0 97.5 40z" />
    <glyph glyph-name="p" unicode="p" horiz-adv-x="597" 
d="M51 -169v747h100v-75q36 44 84.5 67t98.5 23q61 0 113 -32t84 -97t32 -157q0 -93 -38 -166.5t-102 -114.5t-139 -41q-69 0 -133 38v-192h-100zM371 42.5q47 39.5 72.5 107.5t25.5 151q0 82 -22.5 142t-61 92t-85.5 32q-39 0 -78.5 -21t-70.5 -59v-450q58 -34 113 -34
q60 0 107 39.5z" />
    <glyph glyph-name="q" unicode="q" horiz-adv-x="625" 
d="M128.5 514q94.5 79 274.5 79q76 0 169 -15v-748h-100l-1 339q-33 -78 -83.5 -129.5t-115.5 -56.5q-66 0 -120.5 39t-86 108.5t-31.5 156.5q0 148 94.5 227zM389.5 62.5q45.5 46.5 81.5 139.5v367q-38 5 -70 5q-115 0 -191 -64.5t-76 -218.5q0 -89 22 -152.5t59 -95.5
t83 -32q46 5 91.5 51.5z" />
    <glyph glyph-name="r" unicode="r" horiz-adv-x="497" 
d="M51 0v578h100v-289h1q34 140 99 219.5t148 79.5q28 0 57 -10l-14 -70q-38 19 -75 19q-74 0 -129 -73t-87 -205v-249h-100z" />
    <glyph glyph-name="s" unicode="s" horiz-adv-x="555" 
d="M153 -6q-55 10 -102 27l17 70q62 -45 122.5 -64t113.5 -19q65 0 108.5 25.5t46.5 67.5q0 33 -28 62.5t-68.5 53.5t-110.5 60q-68 34 -110.5 59t-71.5 55.5t-29 64.5q0 70 77.5 104.5t192.5 34.5q101 0 193 -24l-11 -70q-53 33 -120.5 53.5t-122.5 20.5q-62 0 -100.5 -21
t-38.5 -61q0 -29 39 -55.5t123 -67.5q78 -38 128 -67.5t85.5 -69.5t35.5 -88q-3 -82 -78 -121.5t-182 -39.5q-54 0 -109 10z" />
    <glyph glyph-name="t" unicode="t" horiz-adv-x="455" 
d="M176.5 3.5q-45.5 22.5 -73.5 65.5t-28 101v394h-60v14h74q36 40 54 97.5t18 126.5h13l1 -224h153v-14h-153v-460q0 -53 24 -82t60 -29q42 0 85.5 40t73.5 110l28 -61q-27 -50 -73.5 -75.5t-99.5 -25.5q-51 0 -96.5 22.5z" />
    <glyph glyph-name="u" unicode="u" horiz-adv-x="615" 
d="M104.5 29q-50.5 45 -50.5 129v420h100v-451q0 -59 28.5 -90.5t71.5 -31.5q46 0 88.5 35.5t71.5 99t37 143.5v295h100v-578h-100v206h-3q-28 -105 -85.5 -163.5t-132.5 -58.5t-125.5 45z" />
    <glyph glyph-name="v" unicode="v" horiz-adv-x="598" 
d="M560 578l-222 -578h-87l-222 578h100l210 -541l104 273q26 70 37 130.5t10 137.5h70z" />
    <glyph glyph-name="w" unicode="w" horiz-adv-x="994" 
d="M252 0l-223 578h99l187 -479l184 479h43l201 -516l111 285q33 84 33 183q0 32 -1 48h70l-224 -578h-66l-190 486l-188 -486h-36z" />
    <glyph glyph-name="x" unicode="x" horiz-adv-x="635" 
d="M4 0l249 287l-252 291h108l227 -264l82 92q40 47 66.5 86.5t41.5 85.5h56l-239 -273l261 -305h-104l-239 278l-92 -106q-77 -85 -104 -172h-61z" />
    <glyph glyph-name="y" unicode="y" horiz-adv-x="614" 
d="M50 -223l21 70q103 -68 185 -68q99 0 153 69.5t54 186.5v126h-3q-31 -87 -87.5 -132.5t-115.5 -45.5q-52 0 -97.5 33.5t-73 95t-27.5 141.5v325h100v-347q0 -106 36 -162t90 -56q34 0 70 23.5t65 69.5t43 108v364h100v-471q0 -105 -46.5 -184.5t-129.5 -123t-188 -43.5
q-76 0 -149 21z" />
    <glyph glyph-name="z" unicode="z" horiz-adv-x="590" 
d="M428 564q-139 0 -224.5 -11t-162.5 -46v71h500l-396 -564q139 0 228 12.5t175 43.5v-70h-518z" />
    <glyph glyph-name="braceleft" unicode="{" horiz-adv-x="418" 
d="M373 -116q-295 0 -295 343q0 41 -6.5 64t-26.5 33q20 10 26.5 33t6.5 64q0 343 295 343v-14q-85 0 -146 -63.5t-61 -215.5q0 -58 -10.5 -96t-29.5 -51q19 -13 29.5 -49.5t10.5 -93.5q0 -105 30.5 -168t77 -89t99.5 -26v-14z" />
    <glyph glyph-name="bar" unicode="|" horiz-adv-x="111" 
d="M63 -66h-14v835h14v-835z" />
    <glyph glyph-name="braceright" unicode="}" horiz-adv-x="431" 
d="M58 -102q53 0 99.5 26t77 89t30.5 168q0 57 10.5 93.5t29.5 49.5q-19 13 -29.5 51t-10.5 96q0 152 -61 215.5t-146 63.5v14q295 0 295 -343q0 -41 6.5 -64t26.5 -33q-20 -10 -26.5 -33t-6.5 -64q0 -343 -295 -343v14z" />
    <glyph glyph-name="asciitilde" unicode="~" horiz-adv-x="571" 
d="M328.5 232.5q-43.5 22.5 -104.5 62.5q-43 29 -71 44t-48 15q-46 0 -46 -107h-14q0 49 16 86t42 57t56 20q37 0 76 -20t103 -61q49 -32 77 -47t49 -15q22 0 35 29t13 82h14q0 -75 -26 -125t-84 -46q-44 3 -87.5 25.5z" />
    <glyph glyph-name="exclamdown" unicode="&#xa1;" horiz-adv-x="184" 
d="M123.5 623.5q15.5 -15.5 15.5 -37.5t-15.5 -38t-37.5 -16t-37.5 15.5t-15.5 38.5q0 22 15.5 37.5t37.5 15.5t37.5 -15.5zM91 403q0 -109 7.5 -180.5t21.5 -152.5q8 -47 12 -80t4 -70h-100q0 36 3.5 67.5t11.5 82.5q13 82 20 153t7 180h13z" />
    <glyph glyph-name="cent" unicode="&#xa2;" horiz-adv-x="642" 
d="M577 24q-82 -39 -175 -39q-79 0 -148 26l-32 -132h-14l33 137q-88 37 -140 111.5t-52 178.5q0 133 82.5 211.5t246.5 78.5h2l30 123h14l-30 -123q91 -3 177 -30l-13 -70q-40 33 -83.5 53.5t-84.5 26.5l-130 -538q49 -32 111 -32q88 0 191 88zM175 149.5
q26 -65.5 73 -102.5l128 530q-6 1 -18 1q-64 0 -111.5 -34t-72.5 -96.5t-25 -145.5q0 -87 26 -152.5z" />
    <glyph glyph-name="sterling" unicode="&#xa3;" horiz-adv-x="644" 
d="M83 0q22 26 33 51t15.5 62t4.5 100v87h-91v14h91v143q0 86 34.5 144t89 86t114.5 28q63 0 113 -29t65 -79l-43 -58q0 47 -21 83t-54 56t-69 20q-51 0 -86.5 -43.5t-35.5 -129.5v-221h138v-14h-138v-73q0 -102 -27.5 -149t-87.5 -65h236q72 0 127 25.5t91 61.5l15 -100
h-514z" />
    <glyph glyph-name="currency" unicode="&#xa4;" horiz-adv-x="505" 
d="M62 108l-17 15l55 62q-52 57 -52 135q0 38 13.5 73t37.5 62l-54 61l17 15l53 -60q60 50 135 50q39 0 74 -14t63 -39l56 63l17 -15l-57 -64q23 -27 35.5 -61t12.5 -71q0 -74 -48 -133l57 -64l-17 -15l-56 63q-59 -53 -137 -53q-77 0 -134 51zM342 161q42 25 67 67t25 92
t-25 92t-67 67t-92 25t-92 -25t-67 -67t-25 -92t25 -92t67 -67t92 -25t92 25z" />
    <glyph glyph-name="yen" unicode="&#xa5;" horiz-adv-x="654" 
d="M559 702h20l-204 -381h121v-11h-127v-89h127v-11h-127v-210h-100v210h-140v11h140v89h-140v11h134l-218 381h100l217 -371z" />
    <glyph glyph-name="brokenbar" unicode="&#xa6;" horiz-adv-x="111" 
d="M63 426h-14v343h14v-343zM63 -62h-14v342h14v-342z" />
    <glyph glyph-name="section" unicode="&#xa7;" horiz-adv-x="581" 
d="M461 -69.5q-75 -40.5 -197 -40.5q-102 0 -219 28v72q61 -35 131 -54.5t129 -19.5q72 0 117 27t45 77q0 35 -28 61t-69 43t-110 41q-69 23 -110.5 40.5t-70 44t-28.5 61.5q0 108 122 140q-58 20 -90 48.5t-32 72.5q0 82 67 116t161 34q62 0 125 -10.5t117 -29.5v-89
q-40 46 -112.5 78.5t-138.5 32.5q-60 0 -104 -20.5t-44 -64.5q0 -28 23 -47.5t57.5 -32t94.5 -28.5q76 -21 124 -39.5t81.5 -52t33.5 -85.5q0 -50 -29.5 -84.5t-76.5 -53.5q50 -25 78 -58.5t28 -80.5q0 -86 -75 -126.5zM145.5 310.5q23.5 -20.5 58.5 -34.5t95 -33
q70 -21 98 -33q31 11 50.5 33t19.5 54q0 34 -26.5 57t-65.5 37t-106 32l-56 15q-38 -8 -64.5 -27t-26.5 -51q0 -29 23.5 -49.5z" />
    <glyph glyph-name="copyright" unicode="&#xa9;" horiz-adv-x="806" 
d="M219 38.5q-82 48.5 -128 131t-46 181.5t46 181.5t128 131t184 48.5t184 -48.5t128 -131t46 -181.5t-46 -181.5t-128 -131t-184 -48.5t-184 48.5zM577 56.5q77 45.5 120 123.5t43 171t-43 171t-120 123.5t-174 45.5t-174 -45.5t-120 -123.5t-43 -171t43 -171t120 -123.5
t174 -45.5t174 45.5zM332.5 180q-41.5 25 -66.5 71.5t-25 107.5q0 99 52 143.5t121 44.5q24 0 40 -4.5t35 -13.5q18 -9 32.5 -12.5t34.5 -1.5v-61h-9q-17 0 -27 8.5t-24 26.5q-18 22 -34 33.5t-44 11.5q-23 0 -49 -15t-44.5 -52t-18.5 -98q0 -57 19.5 -100.5t51.5 -67.5
t68 -24t66.5 22.5t51.5 65.5l13 -5q-24 -52 -65 -78.5t-88 -26.5q-49 0 -90.5 25z" />
    <glyph glyph-name="ordfeminine" unicode="&#xaa;" horiz-adv-x="338" 
d="M52 403q-29 27 -29 71q0 67 62 106.5t163 62.5q0 34 -16.5 51.5t-44.5 17.5q-30 0 -63 -18t-59 -49l-11 43q30 14 64.5 22.5t67.5 8.5q53 0 85.5 -24t32.5 -76v-235h-56v50q-24 -27 -55.5 -42.5t-62.5 -15.5q-49 0 -78 27zM202.5 407.5q26.5 13.5 45.5 34.5v194
q-90 -20 -129 -58.5t-39 -94.5q0 -43 20 -66t51 -23q25 0 51.5 13.5z" />
    <glyph glyph-name="guillemotleft" unicode="&#xab;" horiz-adv-x="604" 
d="M45 324l330 216v-14l-311 -204l311 -208v-14l-330 220v4zM230 324l330 216v-14l-311 -204l311 -208v-14l-330 220v4z" />
    <glyph glyph-name="uni00AD" unicode="&#xad;" horiz-adv-x="310" 
d="M265 300h-220v14h220v-14z" />
    <glyph glyph-name="registered" unicode="&#xae;" horiz-adv-x="545" 
d="M392 681q52 -31 80 -83.5t28 -113.5t-28 -113t-80 -83t-120 -31q-67 0 -119 31t-80 83.5t-28 112.5q0 61 28 113.5t80 83.5t119 31q68 0 120 -31zM383.5 299.5q48.5 29.5 75 78t26.5 104.5q0 57 -26.5 107.5t-75 80.5t-111.5 30q-62 0 -110.5 -30t-75 -79.5t-26.5 -106.5
t27 -106t75.5 -78.5t111.5 -29.5q61 0 109.5 29.5zM326 456l49 -101h-35l-53 103q-7 12 -19 12q-9 0 -20.5 -6t-23.5 -17v-92h-36v250h103q36 0 54.5 -18t18.5 -44q0 -24 -15.5 -44.5t-43.5 -25.5q13 -5 21 -17zM318.5 494.5q13.5 17.5 13.5 42.5q0 26 -16.5 44.5
t-46.5 18.5h-45v-148q33 27 60 26q21 -1 34.5 16.5z" />
    <glyph glyph-name="degree" unicode="&#xb0;" horiz-adv-x="338" 
d="M82 510.5q-37 32.5 -37 89.5t37 89t87 32t87 -32t37 -89t-37 -89.5t-87 -32.5t-87 32.5zM242 524.5q31 27.5 31 75.5t-31 75t-73 27t-73 -27t-31 -75q0 -49 30.5 -76t72.5 -27q43 0 74 27.5z" />
    <glyph glyph-name="plusminus" unicode="&#xb1;" horiz-adv-x="445" 
d="M399 59h-367v13h367v-13zM222 320h177v-14h-177v-180h-13v180h-177v14h177v173h13v-173z" />
    <glyph glyph-name="uni00B2" unicode="&#xb2;" horiz-adv-x="358" 
d="M29 350q0 58 27 99t64 65.5t93 52.5q46 24 66.5 39t20.5 34q0 23 -22 37t-59 14q-35 0 -78 -13t-87 -40l-10 44q76 27 142 27q58 0 92 -22t34 -64q0 -36 -31 -62t-96 -62q-68 -37 -105 -67.5t-43 -74.5q92 0 153 9.5t110 34.5l11 -50z" />
    <glyph glyph-name="uni00B3" unicode="&#xb3;" horiz-adv-x="337" 
d="M39 358l9 50q24 -23 49.5 -34.5t48.5 -11.5q51 0 81.5 23.5t30.5 57.5q0 31 -28 59t-83 44l88 113h-184v43h221v-6l-93 -118q56 -10 84.5 -39t28.5 -66q0 -36 -20.5 -64.5t-58.5 -45.5t-88 -17q-41 0 -86 12z" />
    <glyph glyph-name="paragraph" unicode="&#xb6;" horiz-adv-x="524" 
d="M308 320q-86 0 -145.5 28t-88.5 73t-29 96q0 49 24.5 91.5t74.5 68.5t124 26h181v-793h-37v768h-68v-768h-36v410z" />
    <glyph glyph-name="periodcentered" unicode="&#xb7;" horiz-adv-x="185" 
d="M47.5 220.5q-15.5 15.5 -15.5 38.5t15.5 38.5t38.5 15.5t38.5 -15.5t15.5 -38.5q0 -22 -15.5 -38t-38.5 -16t-38.5 15.5z" />
    <glyph glyph-name="uni00B9" unicode="&#xb9;" horiz-adv-x="190" 
d="M145 350h-50v331l-56 -27v7l98 40h8v-351z" />
    <glyph glyph-name="ordmasculine" unicode="&#xba;" horiz-adv-x="371" 
d="M66 421q-42 47 -42 125q0 79 42 126t116 47q72 0 114.5 -47.5t42.5 -125.5t-42.5 -125t-114.5 -47q-74 0 -116 47zM257 430q28 48 28 116q0 66 -28 115.5t-75 49.5q-50 0 -77 -49t-27 -116q0 -69 27 -116.5t77 -47.5q47 0 75 48z" />
    <glyph glyph-name="guillemotright" unicode="&#xbb;" horiz-adv-x="617" 
d="M242 526v14l330 -216v-4l-330 -220v14l311 208zM58 526v14l330 -216v-4l-330 -220v14l311 208z" />
    <glyph glyph-name="onequarter" unicode="&#xbc;" horiz-adv-x="620" 
d="M145 350h-50v331l-56 -27v7l98 40h8v-351zM91 0h-14l414 702h14zM321 14l9 50q24 -23 49.5 -34.5t48.5 -11.5q51 0 81.5 23.5t30.5 57.5q0 31 -28 59t-83 44l88 113h-184v43h221v-6l-93 -118q56 -10 84.5 -39t28.5 -66q0 -36 -20.5 -64.5t-58.5 -45.5t-88 -17
q-41 0 -86 12z" />
    <glyph glyph-name="onehalf" unicode="&#xbd;" horiz-adv-x="641" 
d="M145 350h-50v331l-56 -27v7l98 40h8v-351zM91 0h-14l414 702h14zM311 1q0 58 27 99t64 65.5t93 52.5q46 24 66.5 39t20.5 34q0 23 -22 37t-59 14q-35 0 -78 -13t-87 -40l-10 44q76 27 142 27q58 0 92 -22t34 -64q0 -36 -31 -62t-96 -62q-68 -37 -105 -67.5t-43 -74.5
q92 0 153 9.5t110 34.5l11 -50z" />
    <glyph glyph-name="threequarters" unicode="&#xbe;" horiz-adv-x="717" 
d="M26 358l10 50q47 -46 98 -46t81 23.5t30 57.5q0 31 -28 59t-83 44l88 113h-184v43h222v-6l-94 -118q56 -10 85 -39t29 -66q0 -36 -20.5 -64.5t-59 -45.5t-88.5 -17q-41 0 -86 12zM218 0h-14l414 702h14zM620 0h-50v111h-205v5l235 235h20v-232h52v-8h-52v-111zM570 310
l-191 -191h191v191z" />
    <glyph glyph-name="questiondown" unicode="&#xbf;" horiz-adv-x="602" 
d="M379.5 605.5q15.5 -15.5 15.5 -38.5t-15.5 -38.5t-37.5 -15.5q-23 0 -38.5 15.5t-15.5 38.5t15.5 38.5t38.5 15.5q22 0 37.5 -15.5zM358 404q16 -25 16 -50q0 -37 -25 -68.5t-77 -78.5q-59 -53 -89 -92.5t-30 -88.5q0 -59 34.5 -93.5t92.5 -34.5q63 0 100 41t37 101
q0 46 -20.5 77t-58.5 38v10q20 5 34 5q43 0 76.5 -18t52 -48t18.5 -64q0 -44 -29 -79.5t-82 -56t-124 -20.5q-68 0 -120.5 20.5t-81.5 57.5t-29 84q0 45 25 80.5t60 61t91 58.5q64 38 94.5 64t30.5 59q0 16 -10 35h14z" />
    <glyph glyph-name="Agrave" unicode="&#xc0;" horiz-adv-x="721" 
d="M30 0l280 702h100l281 -702h-55q-13 82 -25 137t-36 117l-22 56h-299l-124 -310h-100zM403 685l-144 -361h288zM490 778h-14l-227 194h100z" />
    <glyph glyph-name="Aacute" unicode="&#xc1;" horiz-adv-x="721" 
d="M30 0l280 702h100l281 -702h-55q-13 82 -25 137t-36 117l-22 56h-299l-124 -310h-100zM403 685l-144 -361h288zM506 972l-227 -194h-14l141 194h100z" />
    <glyph glyph-name="Acircumflex" unicode="&#xc2;" horiz-adv-x="721" 
d="M30 0l280 702h100l281 -702h-55q-13 82 -25 137t-36 117l-22 56h-299l-124 -310h-100zM403 685l-144 -361h288zM361 972l167 -182h-80l-94 169l-83 -169h-84l160 182h14z" />
    <glyph glyph-name="Atilde" unicode="&#xc3;" horiz-adv-x="721" 
d="M30 0l280 702h100l281 -702h-55q-13 82 -25 137t-36 117l-22 56h-299l-124 -310h-100zM403 685l-144 -361h288zM406 838q-26 9 -67 26q-36 15 -56.5 22t-35.5 7q-40 0 -40 -47h-10q0 50 25 73.5t53 23.5q23 0 50 -9t67 -26q38 -15 56.5 -21.5t33.5 -6.5q16 0 22.5 9
t6.5 34h11q0 -50 -19.5 -72t-49.5 -22q-21 0 -47 9z" />
    <glyph glyph-name="Adieresis" unicode="&#xc4;" horiz-adv-x="721" 
d="M30 0l280 702h100l281 -702h-55q-13 82 -25 137t-36 117l-22 56h-299l-124 -310h-100zM403 685l-144 -361h288zM268 835.5q-11 10.5 -11 26.5t11 26.5t26 10.5q16 0 26.5 -10.5t10.5 -26.5t-10.5 -26.5t-26.5 -10.5q-15 0 -26 10.5zM400.5 835.5q-10.5 10.5 -10.5 26.5
t10.5 26.5t26.5 10.5q15 0 25.5 -10.5t10.5 -26.5t-10.5 -26.5t-25.5 -10.5q-16 0 -26.5 10.5z" />
    <glyph glyph-name="Aring" unicode="&#xc5;" horiz-adv-x="721" 
d="M30 0l280 702h100l281 -702h-55q-13 82 -25 137t-36 117l-22 56h-299l-124 -310h-100zM403 685l-144 -361h288zM296.5 814.5q-24.5 24.5 -24.5 59.5t24.5 59.5t59.5 24.5t59.5 -24.5t24.5 -59.5t-24.5 -59.5t-59.5 -24.5t-59.5 24.5zM398.5 819.5q16.5 20.5 16.5 54.5
q0 35 -16.5 55t-42.5 20t-42.5 -20t-16.5 -55q0 -34 16.5 -54.5t42.5 -20.5t42.5 20.5z" />
    <glyph glyph-name="AE" unicode="&#xc6;" horiz-adv-x="1033" 
d="M30 0l319 702h609v-70q-78 33 -145.5 44.5t-141.5 11.5h-124v-286h359v-14h-359v-374h106q115 1 189 13t131 43v-70h-526v305h-172l-137 -305h-108zM447 686l-165 -367h165v367z" />
    <glyph glyph-name="Ccedilla" unicode="&#xc7;" horiz-adv-x="698" 
d="M395 -13l-11 -36h45q36 0 57.5 -17t21.5 -49q0 -66 -54 -96t-133 -30q-20 0 -30 1v10q68 -1 113 26t45 81q0 28 -12 44t-35 16h-45l16 52q-97 13 -170 59.5t-113 125t-40 182.5q0 116 51 199t139.5 125.5t199.5 42.5q106 0 221 -41l-5 -71q-20 11 -58 37q-49 31 -76.5 45
t-55.5 14q-96 0 -167.5 -42.5t-110 -121.5t-38.5 -187q0 -99 43 -180.5t118 -128t168 -46.5q25 0 52.5 14.5t66.5 41.5q38 26 56 36l7 -73q-117 -35 -218 -35q-16 0 -48 2z" />
    <glyph glyph-name="Egrave" unicode="&#xc8;" horiz-adv-x="651" 
d="M165 14q152 0 247 11.5t179 44.5v-70h-526v702h511v-70q-74 31 -169.5 43.5t-241.5 12.5v-286h358v-14h-358v-374zM453 778h-14l-227 194h100z" />
    <glyph glyph-name="Eacute" unicode="&#xc9;" horiz-adv-x="651" 
d="M165 14q152 0 247 11.5t179 44.5v-70h-526v702h511v-70q-74 31 -169.5 43.5t-241.5 12.5v-286h358v-14h-358v-374zM469 972l-227 -194h-14l141 194h100z" />
    <glyph glyph-name="Ecircumflex" unicode="&#xca;" horiz-adv-x="651" 
d="M165 14q152 0 247 11.5t179 44.5v-70h-526v702h511v-70q-74 31 -169.5 43.5t-241.5 12.5v-286h358v-14h-358v-374zM324 972l167 -182h-80l-94 169l-83 -169h-84l160 182h14z" />
    <glyph glyph-name="Edieresis" unicode="&#xcb;" horiz-adv-x="651" 
d="M165 14q152 0 247 11.5t179 44.5v-70h-526v702h511v-70q-74 31 -169.5 43.5t-241.5 12.5v-286h358v-14h-358v-374zM232 835.5q-11 10.5 -11 26.5t11 26.5t26 10.5q16 0 26.5 -10.5t10.5 -26.5t-10.5 -26.5t-26.5 -10.5q-15 0 -26 10.5zM364.5 835.5
q-10.5 10.5 -10.5 26.5t10.5 26.5t26.5 10.5q15 0 25.5 -10.5t10.5 -26.5t-10.5 -26.5t-25.5 -10.5q-16 0 -26.5 10.5z" />
    <glyph glyph-name="Igrave" unicode="&#xcc;" horiz-adv-x="278" 
d="M172 0h-100v702h100v-702zM259 778h-14l-227 194h100z" />
    <glyph glyph-name="Iacute" unicode="&#xcd;" horiz-adv-x="266" 
d="M218 0h-100v702h100v-702zM314 972l-227 -194h-14l141 194h100z" />
    <glyph glyph-name="Icircumflex" unicode="&#xce;" horiz-adv-x="293" 
d="M200 0h-100v702h100v-702zM150 972l167 -182h-80l-94 169l-83 -169h-84l160 182h14z" />
    <glyph glyph-name="Idieresis" unicode="&#xcf;" horiz-adv-x="269" 
d="M184 0h-100v702h100v-702zM42 835.5q-11 10.5 -11 26.5t11 26.5t26 10.5q16 0 26.5 -10.5t10.5 -26.5t-10.5 -26.5t-26.5 -10.5q-15 0 -26 10.5zM174.5 835.5q-10.5 10.5 -10.5 26.5t10.5 26.5t26.5 10.5q15 0 25.5 -10.5t10.5 -26.5t-10.5 -26.5t-25.5 -10.5
q-16 0 -26.5 10.5z" />
    <glyph glyph-name="Eth" unicode="&#xd0;" horiz-adv-x="723" 
d="M353 702q152 0 236 -85t84 -253q0 -124 -46.5 -206t-123 -120t-168.5 -38h-234v345h-67v14h67v343h252zM290 15q91 0 153 31.5t96 108t34 209.5q0 169 -64.5 246.5t-200.5 76.5h-107v-328h70v-14h-70v-330h89z" />
    <glyph glyph-name="Ntilde" unicode="&#xd1;" horiz-adv-x="690" 
d="M53 0q14 56 18.5 109.5t4.5 127.5v465h78l453 -660v438q0 129 -24 222h61q-24 -93 -24 -222v-480h-89l-441 645v-408q0 -71 5 -126.5t19 -110.5h-61zM391 838q-26 9 -67 26q-36 15 -56.5 22t-35.5 7q-40 0 -40 -47h-10q0 50 25 73.5t53 23.5q23 0 50 -9t67 -26
q38 -15 56.5 -21.5t33.5 -6.5q16 0 22.5 9t6.5 34h11q0 -50 -19.5 -72t-49.5 -22q-21 0 -47 9z" />
    <glyph glyph-name="Ograve" unicode="&#xd2;" horiz-adv-x="754" 
d="M198 32q-74 49 -111 132t-37 185q0 107 37 191t110.5 131.5t179.5 47.5t179.5 -47.5t110.5 -131.5t37 -191q0 -102 -37 -185t-111 -132t-179 -49t-179 49zM549 98.5q55 101.5 55 250.5q0 94 -22.5 174.5t-73.5 131t-131 50.5q-119 0 -173 -103t-54 -253q0 -93 23.5 -173
t74.5 -129.5t129 -49.5q117 0 172 101.5zM506 778h-14l-227 194h100z" />
    <glyph glyph-name="Oacute" unicode="&#xd3;" horiz-adv-x="754" 
d="M198 32q-74 49 -111 132t-37 185q0 107 37 191t110.5 131.5t179.5 47.5t179.5 -47.5t110.5 -131.5t37 -191q0 -102 -37 -185t-111 -132t-179 -49t-179 49zM549 98.5q55 101.5 55 250.5q0 94 -22.5 174.5t-73.5 131t-131 50.5q-119 0 -173 -103t-54 -253q0 -93 23.5 -173
t74.5 -129.5t129 -49.5q117 0 172 101.5zM522 972l-227 -194h-14l141 194h100z" />
    <glyph glyph-name="Ocircumflex" unicode="&#xd4;" horiz-adv-x="754" 
d="M198 32q-74 49 -111 132t-37 185q0 107 37 191t110.5 131.5t179.5 47.5t179.5 -47.5t110.5 -131.5t37 -191q0 -102 -37 -185t-111 -132t-179 -49t-179 49zM549 98.5q55 101.5 55 250.5q0 94 -22.5 174.5t-73.5 131t-131 50.5q-119 0 -173 -103t-54 -253q0 -93 23.5 -173
t74.5 -129.5t129 -49.5q117 0 172 101.5zM377 972l167 -182h-80l-94 169l-83 -169h-84l160 182h14z" />
    <glyph glyph-name="Otilde" unicode="&#xd5;" horiz-adv-x="754" 
d="M198 32q-74 49 -111 132t-37 185q0 107 37 191t110.5 131.5t179.5 47.5t179.5 -47.5t110.5 -131.5t37 -191q0 -102 -37 -185t-111 -132t-179 -49t-179 49zM549 98.5q55 101.5 55 250.5q0 94 -22.5 174.5t-73.5 131t-131 50.5q-119 0 -173 -103t-54 -253q0 -93 23.5 -173
t74.5 -129.5t129 -49.5q117 0 172 101.5zM422 838q-26 9 -67 26q-36 15 -56.5 22t-35.5 7q-40 0 -40 -47h-10q0 50 25 73.5t53 23.5q23 0 50 -9t67 -26q38 -15 56.5 -21.5t33.5 -6.5q16 0 22.5 9t6.5 34h11q0 -50 -19.5 -72t-49.5 -22q-21 0 -47 9z" />
    <glyph glyph-name="Odieresis" unicode="&#xd6;" horiz-adv-x="754" 
d="M198 32q-74 49 -111 132t-37 185q0 107 37 191t110.5 131.5t179.5 47.5t179.5 -47.5t110.5 -131.5t37 -191q0 -102 -37 -185t-111 -132t-179 -49t-179 49zM549 98.5q55 101.5 55 250.5q0 94 -22.5 174.5t-73.5 131t-131 50.5q-119 0 -173 -103t-54 -253q0 -93 23.5 -173
t74.5 -129.5t129 -49.5q117 0 172 101.5zM285 835.5q-11 10.5 -11 26.5t11 26.5t26 10.5q16 0 26.5 -10.5t10.5 -26.5t-10.5 -26.5t-26.5 -10.5q-15 0 -26 10.5zM417.5 835.5q-10.5 10.5 -10.5 26.5t10.5 26.5t26.5 10.5q15 0 25.5 -10.5t10.5 -26.5t-10.5 -26.5
t-25.5 -10.5q-16 0 -26.5 10.5z" />
    <glyph glyph-name="multiply" unicode="&#xd7;" horiz-adv-x="370" 
d="M188 312l127 -127l-10 -10l-127 128l-125 -125l-10 10l125 125l-122 122l10 9l122 -122l125 125l10 -10z" />
    <glyph glyph-name="Oslash" unicode="&#xd8;" horiz-adv-x="754" 
d="M486 704q106 -33 162 -127.5t56 -227.5q0 -102 -37 -185t-111 -132t-179 -49q-49 0 -93 11l-28 -98h-14l29 102q-107 33 -164 128.5t-57 222.5q0 107 37 191t110.5 131.5t179.5 47.5q53 0 96 -12l28 99h14zM181.5 151.5q31.5 -88.5 96.5 -128.5l188 661q-37 21 -89 21
q-119 0 -173 -103t-54 -253q0 -109 31.5 -197.5zM549 98.5q55 101.5 55 250.5q0 109 -30.5 198.5t-95.5 129.5l-188 -660q38 -20 87 -20q117 0 172 101.5z" />
    <glyph glyph-name="Ugrave" unicode="&#xd9;" horiz-adv-x="662" 
d="M190 13q-63 28 -99 83.5t-36 136.5v469h101v-518q0 -96 51.5 -140.5t126.5 -44.5q74 0 124.5 44.5t50.5 140.5v518h100v-469q0 -120 -76 -184t-199 -64q-81 0 -144 28zM459 778h-14l-227 194h100z" />
    <glyph glyph-name="Uacute" unicode="&#xda;" horiz-adv-x="662" 
d="M190 13q-63 28 -99 83.5t-36 136.5v469h101v-518q0 -96 51.5 -140.5t126.5 -44.5q74 0 124.5 44.5t50.5 140.5v518h100v-469q0 -120 -76 -184t-199 -64q-81 0 -144 28zM475 972l-227 -194h-14l141 194h100z" />
    <glyph glyph-name="Ucircumflex" unicode="&#xdb;" horiz-adv-x="662" 
d="M190 13q-63 28 -99 83.5t-36 136.5v469h101v-518q0 -96 51.5 -140.5t126.5 -44.5q74 0 124.5 44.5t50.5 140.5v518h100v-469q0 -120 -76 -184t-199 -64q-81 0 -144 28zM330 972l167 -182h-80l-94 169l-83 -169h-84l160 182h14z" />
    <glyph glyph-name="Udieresis" unicode="&#xdc;" horiz-adv-x="662" 
d="M190 13q-63 28 -99 83.5t-36 136.5v469h101v-518q0 -96 51.5 -140.5t126.5 -44.5q74 0 124.5 44.5t50.5 140.5v518h100v-469q0 -120 -76 -184t-199 -64q-81 0 -144 28zM238 835.5q-11 10.5 -11 26.5t11 26.5t26 10.5q16 0 26.5 -10.5t10.5 -26.5t-10.5 -26.5t-26.5 -10.5
q-15 0 -26 10.5zM370.5 835.5q-10.5 10.5 -10.5 26.5t10.5 26.5t26.5 10.5q15 0 25.5 -10.5t10.5 -26.5t-10.5 -26.5t-25.5 -10.5q-16 0 -26.5 10.5z" />
    <glyph glyph-name="Yacute" unicode="&#xdd;" horiz-adv-x="583" 
d="M553 702l-204 -390v-312h-100v312l-204 390h100l197 -377l112 215q17 31 23.5 61t6.5 69l-1 32h70zM437 972l-227 -194h-14l141 194h100z" />
    <glyph glyph-name="Thorn" unicode="&#xde;" horiz-adv-x="600" 
d="M302 573q123 0 188 -56.5t65 -155.5q0 -60 -30 -109t-87 -78t-136 -29h-137v-145h-100v702h100v-129h137zM271 166q97 -2 140.5 54.5t43.5 140.5q0 94 -41.5 142.5t-142.5 48.5h-106v-386h106z" />
    <glyph glyph-name="germandbls" unicode="&#xdf;" horiz-adv-x="714" 
d="M332 20.5q-67 37.5 -114 111.5l11 9q39 -64 99 -98.5t119 -34.5t98 37.5t39 100.5q0 40 -25 92t-77 106.5t-130 101.5q51 51 77 99t26 87t-27 61t-79 22q-50 0 -97 -29t-77 -89t-30 -148v-449h-100v431q0 97 44 165t111 102.5t136 34.5q70 0 104.5 -26.5t34.5 -71.5
q0 -32 -16 -70t-47 -76q83 -40 141 -94t87 -111.5t29 -108.5q0 -57 -27 -100.5t-72.5 -67.5t-100.5 -24q-70 0 -137 37.5z" />
    <glyph glyph-name="agrave" unicode="&#xe0;" horiz-adv-x="606" 
d="M94 33.5q-51 48.5 -51 127.5q0 119 109.5 189t290.5 112q0 60 -29 91t-79 31q-54 0 -113 -32.5t-106 -86.5l-20 77q54 25 116 39.5t120 14.5q95 0 153 -42.5t58 -135.5v-418h-100v89q-44 -48 -100 -76t-111 -28q-87 0 -138 48.5zM361.5 41.5q47.5 24.5 81.5 61.5v345
q-161 -35 -230.5 -103t-69.5 -169q0 -77 36 -118t92 -41q43 0 90.5 24.5zM433 654h-14l-227 194h100z" />
    <glyph glyph-name="aacute" unicode="&#xe1;" horiz-adv-x="606" 
d="M94 33.5q-51 48.5 -51 127.5q0 119 109.5 189t290.5 112q0 60 -29 91t-79 31q-54 0 -113 -32.5t-106 -86.5l-20 77q54 25 116 39.5t120 14.5q95 0 153 -42.5t58 -135.5v-418h-100v89q-44 -48 -100 -76t-111 -28q-87 0 -138 48.5zM361.5 41.5q47.5 24.5 81.5 61.5v345
q-161 -35 -230.5 -103t-69.5 -169q0 -77 36 -118t92 -41q43 0 90.5 24.5zM449 848l-227 -194h-14l141 194h100z" />
    <glyph glyph-name="acircumflex" unicode="&#xe2;" horiz-adv-x="606" 
d="M94 33.5q-51 48.5 -51 127.5q0 119 109.5 189t290.5 112q0 60 -29 91t-79 31q-54 0 -113 -32.5t-106 -86.5l-20 77q54 25 116 39.5t120 14.5q95 0 153 -42.5t58 -135.5v-418h-100v89q-44 -48 -100 -76t-111 -28q-87 0 -138 48.5zM361.5 41.5q47.5 24.5 81.5 61.5v345
q-161 -35 -230.5 -103t-69.5 -169q0 -77 36 -118t92 -41q43 0 90.5 24.5zM303 848l167 -182h-80l-94 169l-83 -169h-84l160 182h14z" />
    <glyph glyph-name="atilde" unicode="&#xe3;" horiz-adv-x="606" 
d="M94 33.5q-51 48.5 -51 127.5q0 119 109.5 189t290.5 112q0 60 -29 91t-79 31q-54 0 -113 -32.5t-106 -86.5l-20 77q54 25 116 39.5t120 14.5q95 0 153 -42.5t58 -135.5v-418h-100v89q-44 -48 -100 -76t-111 -28q-87 0 -138 48.5zM361.5 41.5q47.5 24.5 81.5 61.5v345
q-161 -35 -230.5 -103t-69.5 -169q0 -77 36 -118t92 -41q43 0 90.5 24.5zM349 714q-26 9 -67 26q-36 15 -56.5 22t-35.5 7q-40 0 -40 -47h-10q0 50 25 73.5t53 23.5q23 0 50 -9t67 -26q38 -15 56.5 -21.5t33.5 -6.5q16 0 22.5 9t6.5 34h11q0 -50 -19.5 -72t-49.5 -22
q-21 0 -47 9z" />
    <glyph glyph-name="adieresis" unicode="&#xe4;" horiz-adv-x="606" 
d="M94 33.5q-51 48.5 -51 127.5q0 119 109.5 189t290.5 112q0 60 -29 91t-79 31q-54 0 -113 -32.5t-106 -86.5l-20 77q54 25 116 39.5t120 14.5q95 0 153 -42.5t58 -135.5v-418h-100v89q-44 -48 -100 -76t-111 -28q-87 0 -138 48.5zM361.5 41.5q47.5 24.5 81.5 61.5v345
q-161 -35 -230.5 -103t-69.5 -169q0 -77 36 -118t92 -41q43 0 90.5 24.5zM211 711.5q-11 10.5 -11 26.5t11 26.5t26 10.5q16 0 26.5 -10.5t10.5 -26.5t-10.5 -26.5t-26.5 -10.5q-15 0 -26 10.5zM343.5 711.5q-10.5 10.5 -10.5 26.5t10.5 26.5t26.5 10.5q15 0 25.5 -10.5
t10.5 -26.5t-10.5 -26.5t-25.5 -10.5q-16 0 -26.5 10.5z" />
    <glyph glyph-name="aring" unicode="&#xe5;" horiz-adv-x="606" 
d="M94 33.5q-51 48.5 -51 127.5q0 119 109.5 189t290.5 112q0 60 -29 91t-79 31q-54 0 -113 -32.5t-106 -86.5l-20 77q54 25 116 39.5t120 14.5q95 0 153 -42.5t58 -135.5v-418h-100v89q-44 -48 -100 -76t-111 -28q-87 0 -138 48.5zM361.5 41.5q47.5 24.5 81.5 61.5v345
q-161 -35 -230.5 -103t-69.5 -169q0 -77 36 -118t92 -41q43 0 90.5 24.5zM239.5 690.5q-24.5 24.5 -24.5 59.5t24.5 59.5t59.5 24.5t59.5 -24.5t24.5 -59.5t-24.5 -59.5t-59.5 -24.5t-59.5 24.5zM341.5 695.5q16.5 20.5 16.5 54.5q0 35 -16.5 55t-42.5 20t-42.5 -20
t-16.5 -55q0 -34 16.5 -54.5t42.5 -20.5t42.5 20.5z" />
    <glyph glyph-name="ae" unicode="&#xe6;" horiz-adv-x="1033" 
d="M854 35q58 36 114 108l21 -70q-56 -44 -116.5 -65.5t-120.5 -21.5q-70 0 -132 28t-106 80t-62 122q-11 -78 -45.5 -130t-80.5 -76.5t-94 -24.5q-87 0 -138 48.5t-51 127.5q0 119 109.5 189t290.5 112q0 60 -29 89.5t-79 29.5q-51 0 -111.5 -32.5t-107.5 -83.5l-20 77
q54 25 116 39.5t120 14.5q67 0 117 -21t74 -66q42 42 98.5 64t116.5 22q67 0 124.5 -27.5t92.5 -81.5t35 -132q0 -33 -9 -70h-439q2 -86 28.5 -150.5t71.5 -99.5t101 -35q53 0 111 36zM650 551.5q-43 -29.5 -72.5 -87t-34.5 -137.5v-29h351q6 33 6 63q0 71 -22 120.5
t-59 74.5t-80 25q-46 0 -89 -29.5zM352 50.5q39 33.5 64 93t27 132.5q-1 9 -1 26q0 18 1 27v119q-161 -35 -230.5 -103t-69.5 -169q0 -77 36 -118t92 -41q42 0 81 33.5z" />
    <glyph glyph-name="ccedilla" unicode="&#xe7;" horiz-adv-x="592" 
d="M320 -49q37 0 58 -17t21 -49q0 -66 -53.5 -96t-132.5 -30q-20 0 -30 1v10q68 -1 113 26t45 81q0 28 -12 44t-35 16h-45l19 63h4q-107 30 -172.5 109.5t-65.5 196.5q0 133 82.5 211.5t246.5 78.5q97 0 193 -30l-13 -70q-48 40 -101 61t-99 21q-64 0 -111.5 -34
t-72.5 -96.5t-25 -145.5q0 -89 27.5 -156t78 -103.5t116.5 -36.5q88 0 191 88l15 -70q-82 -39 -175 -39q-48 0 -97 11l-14 -45h44z" />
    <glyph glyph-name="egrave" unicode="&#xe8;" horiz-adv-x="625" 
d="M189 25.5q-71 39.5 -113 111.5t-42 165q0 92 42.5 158.5t110.5 100.5t143 34q67 0 124.5 -27.5t92.5 -81.5t35 -132q0 -32 -9 -70h-439q2 -86 28.5 -150.5t71.5 -99.5t101 -35q53 0 111 36t114 108l21 -70q-56 -44 -116.5 -65.5t-120.5 -21.5q-84 0 -155 39.5zM486 298
q6 33 6 63q0 71 -22 120.5t-59 74.5t-80 25q-49 0 -94 -33t-74 -97t-29 -153h352zM442 654h-14l-227 194h100z" />
    <glyph glyph-name="eacute" unicode="&#xe9;" horiz-adv-x="625" 
d="M189 25.5q-71 39.5 -113 111.5t-42 165q0 92 42.5 158.5t110.5 100.5t143 34q67 0 124.5 -27.5t92.5 -81.5t35 -132q0 -32 -9 -70h-439q2 -86 28.5 -150.5t71.5 -99.5t101 -35q53 0 111 36t114 108l21 -70q-56 -44 -116.5 -65.5t-120.5 -21.5q-84 0 -155 39.5zM486 298
q6 33 6 63q0 71 -22 120.5t-59 74.5t-80 25q-49 0 -94 -33t-74 -97t-29 -153h352zM458 848l-227 -194h-14l141 194h100z" />
    <glyph glyph-name="ecircumflex" unicode="&#xea;" horiz-adv-x="625" 
d="M189 25.5q-71 39.5 -113 111.5t-42 165q0 92 42.5 158.5t110.5 100.5t143 34q67 0 124.5 -27.5t92.5 -81.5t35 -132q0 -32 -9 -70h-439q2 -86 28.5 -150.5t71.5 -99.5t101 -35q53 0 111 36t114 108l21 -70q-56 -44 -116.5 -65.5t-120.5 -21.5q-84 0 -155 39.5zM486 298
q6 33 6 63q0 71 -22 120.5t-59 74.5t-80 25q-49 0 -94 -33t-74 -97t-29 -153h352zM313 848l167 -182h-80l-94 169l-83 -169h-84l160 182h14z" />
    <glyph glyph-name="edieresis" unicode="&#xeb;" horiz-adv-x="625" 
d="M189 25.5q-71 39.5 -113 111.5t-42 165q0 92 42.5 158.5t110.5 100.5t143 34q67 0 124.5 -27.5t92.5 -81.5t35 -132q0 -32 -9 -70h-439q2 -86 28.5 -150.5t71.5 -99.5t101 -35q53 0 111 36t114 108l21 -70q-56 -44 -116.5 -65.5t-120.5 -21.5q-84 0 -155 39.5zM486 298
q6 33 6 63q0 71 -22 120.5t-59 74.5t-80 25q-49 0 -94 -33t-74 -97t-29 -153h352zM220 711.5q-11 10.5 -11 26.5t11 26.5t26 10.5q16 0 26.5 -10.5t10.5 -26.5t-10.5 -26.5t-26.5 -10.5q-15 0 -26 10.5zM352.5 711.5q-10.5 10.5 -10.5 26.5t10.5 26.5t26.5 10.5
q15 0 25.5 -10.5t10.5 -26.5t-10.5 -26.5t-25.5 -10.5q-16 0 -26.5 10.5z" />
    <glyph glyph-name="igrave" unicode="&#xec;" horiz-adv-x="285" 
d="M160 0h-100v578h100v-578zM264 654h-14l-227 194h100z" />
    <glyph glyph-name="iacute" unicode="&#xed;" horiz-adv-x="274" 
d="M205 0h-100v578h100v-578zM319 848l-227 -194h-14l141 194h100z" />
    <glyph glyph-name="icircumflex" unicode="&#xee;" horiz-adv-x="300" 
d="M187 0h-100v578h100v-578zM155 848l167 -182h-80l-94 169l-83 -169h-84l160 182h14z" />
    <glyph glyph-name="idieresis" unicode="&#xef;" horiz-adv-x="278" 
d="M172 0h-100v578h100v-578zM47 711.5q-11 10.5 -11 26.5t11 26.5t26 10.5q16 0 26.5 -10.5t10.5 -26.5t-10.5 -26.5t-26.5 -10.5q-15 0 -26 10.5zM179.5 711.5q-10.5 10.5 -10.5 26.5t10.5 26.5t26.5 10.5q15 0 25.5 -10.5t10.5 -26.5t-10.5 -26.5t-25.5 -10.5
q-16 0 -26.5 10.5z" />
    <glyph glyph-name="eth" unicode="&#xf0;" horiz-adv-x="646" 
d="M368 780q122 -92 182.5 -213.5t60.5 -244.5q0 -100 -37 -178t-105 -121.5t-157 -43.5q-75 0 -138.5 35.5t-101.5 103.5t-38 160q0 101 36.5 172.5t99 108t140.5 36.5q74 0 150 -33l1 -16q-65 31 -120 31q-102 0 -154.5 -74.5t-52.5 -206.5q0 -95 24.5 -162.5t66.5 -102.5
t94 -35q62 0 105.5 43.5t65 117.5t21.5 165q0 141 -38 251t-128 193l-106 -66l-9 13l102 64q-43 37 -103 71l3 13q64 -30 121 -71l97 61l9 -15z" />
    <glyph glyph-name="ntilde" unicode="&#xf1;" horiz-adv-x="633" 
d="M530.5 558q38.5 -37 38.5 -109v-449h-100v452q0 55 -21 82.5t-57 27.5t-79.5 -25t-86 -71t-74.5 -107v-359h-100v578h100v-194q60 104 137 157.5t148 53.5q56 0 94.5 -37zM372 714q-26 9 -67 26q-36 15 -56.5 22t-35.5 7q-40 0 -40 -47h-10q0 50 25 73.5t53 23.5
q23 0 50 -9t67 -26q38 -15 56.5 -21.5t33.5 -6.5q16 0 22.5 9t6.5 34h11q0 -50 -19.5 -72t-49.5 -22q-21 0 -47 9z" />
    <glyph glyph-name="ograve" unicode="&#xf2;" horiz-adv-x="627" 
d="M164 20.5q-63 37.5 -96.5 106.5t-33.5 160q0 92 33.5 162t96.5 108t150 38q84 0 147 -38.5t97 -108t34 -161.5q0 -91 -34 -160t-97 -106.5t-147 -37.5q-87 0 -150 37.5zM411.5 37q41.5 40 63.5 106.5t22 143.5q0 75 -22 142.5t-63.5 109.5t-97.5 42q-60 0 -101.5 -41.5
t-62 -109t-20.5 -143.5q0 -78 20.5 -144t62 -106t101.5 -40q56 0 97.5 40zM443 654h-14l-227 194h100z" />
    <glyph glyph-name="oacute" unicode="&#xf3;" horiz-adv-x="627" 
d="M164 20.5q-63 37.5 -96.5 106.5t-33.5 160q0 92 33.5 162t96.5 108t150 38q84 0 147 -38.5t97 -108t34 -161.5q0 -91 -34 -160t-97 -106.5t-147 -37.5q-87 0 -150 37.5zM411.5 37q41.5 40 63.5 106.5t22 143.5q0 75 -22 142.5t-63.5 109.5t-97.5 42q-60 0 -101.5 -41.5
t-62 -109t-20.5 -143.5q0 -78 20.5 -144t62 -106t101.5 -40q56 0 97.5 40zM459 848l-227 -194h-14l141 194h100z" />
    <glyph glyph-name="ocircumflex" unicode="&#xf4;" horiz-adv-x="627" 
d="M164 20.5q-63 37.5 -96.5 106.5t-33.5 160q0 92 33.5 162t96.5 108t150 38q84 0 147 -38.5t97 -108t34 -161.5q0 -91 -34 -160t-97 -106.5t-147 -37.5q-87 0 -150 37.5zM411.5 37q41.5 40 63.5 106.5t22 143.5q0 75 -22 142.5t-63.5 109.5t-97.5 42q-60 0 -101.5 -41.5
t-62 -109t-20.5 -143.5q0 -78 20.5 -144t62 -106t101.5 -40q56 0 97.5 40zM314 848l167 -182h-80l-94 169l-83 -169h-84l160 182h14z" />
    <glyph glyph-name="otilde" unicode="&#xf5;" horiz-adv-x="627" 
d="M164 20.5q-63 37.5 -96.5 106.5t-33.5 160q0 92 33.5 162t96.5 108t150 38q84 0 147 -38.5t97 -108t34 -161.5q0 -91 -34 -160t-97 -106.5t-147 -37.5q-87 0 -150 37.5zM411.5 37q41.5 40 63.5 106.5t22 143.5q0 75 -22 142.5t-63.5 109.5t-97.5 42q-60 0 -101.5 -41.5
t-62 -109t-20.5 -143.5q0 -78 20.5 -144t62 -106t101.5 -40q56 0 97.5 40zM359 714q-26 9 -67 26q-36 15 -56.5 22t-35.5 7q-40 0 -40 -47h-10q0 50 25 73.5t53 23.5q23 0 50 -9t67 -26q38 -15 56.5 -21.5t33.5 -6.5q16 0 22.5 9t6.5 34h11q0 -50 -19.5 -72t-49.5 -22
q-21 0 -47 9z" />
    <glyph glyph-name="odieresis" unicode="&#xf6;" horiz-adv-x="627" 
d="M164 20.5q-63 37.5 -96.5 106.5t-33.5 160q0 92 33.5 162t96.5 108t150 38q84 0 147 -38.5t97 -108t34 -161.5q0 -91 -34 -160t-97 -106.5t-147 -37.5q-87 0 -150 37.5zM411.5 37q41.5 40 63.5 106.5t22 143.5q0 75 -22 142.5t-63.5 109.5t-97.5 42q-60 0 -101.5 -41.5
t-62 -109t-20.5 -143.5q0 -78 20.5 -144t62 -106t101.5 -40q56 0 97.5 40zM221 711.5q-11 10.5 -11 26.5t11 26.5t26 10.5q16 0 26.5 -10.5t10.5 -26.5t-10.5 -26.5t-26.5 -10.5q-15 0 -26 10.5zM353.5 711.5q-10.5 10.5 -10.5 26.5t10.5 26.5t26.5 10.5q15 0 25.5 -10.5
t10.5 -26.5t-10.5 -26.5t-25.5 -10.5q-16 0 -26.5 10.5z" />
    <glyph glyph-name="divide" unicode="&#xf7;" horiz-adv-x="445" 
d="M399 306h-367v13h367v-13zM178.5 116.5q-15.5 15.5 -15.5 38.5t15.5 38.5t38.5 15.5t38.5 -15.5t15.5 -38.5q0 -22 -15.5 -38t-38.5 -16t-38.5 15.5zM178.5 431.5q-15.5 15.5 -15.5 38.5t15.5 38.5t38.5 15.5t38.5 -15.5t15.5 -38.5q0 -22 -15.5 -38t-38.5 -16
t-38.5 15.5z" />
    <glyph glyph-name="oslash" unicode="&#xf8;" horiz-adv-x="627" 
d="M406 582q87 -28 136.5 -106t49.5 -189q0 -91 -34 -160t-97 -106.5t-147 -37.5q-39 0 -76 8l-45 -157h-14l46 161q-91 25 -141 102.5t-50 189.5q0 92 33.5 162t96.5 108t150 38q43 0 79 -10l45 159h14zM156 126q26 -72 76 -105l154 539q-36 21 -72 21q-60 0 -101.5 -41.5
t-62 -109t-20.5 -143.5q0 -89 26 -161zM411.5 37q41.5 40 63.5 106.5t22 143.5q0 83 -26.5 155.5t-73.5 109.5l-153 -538q32 -17 70 -17q56 0 97.5 40z" />
    <glyph glyph-name="ugrave" unicode="&#xf9;" horiz-adv-x="615" 
d="M104.5 29q-50.5 45 -50.5 129v420h100v-451q0 -59 28.5 -90.5t71.5 -31.5q46 0 88.5 35.5t71.5 99t37 143.5v295h100v-578h-100v206h-3q-28 -105 -85.5 -163.5t-132.5 -58.5t-125.5 45zM432 654h-14l-227 194h100z" />
    <glyph glyph-name="uacute" unicode="&#xfa;" horiz-adv-x="615" 
d="M104.5 29q-50.5 45 -50.5 129v420h100v-451q0 -59 28.5 -90.5t71.5 -31.5q46 0 88.5 35.5t71.5 99t37 143.5v295h100v-578h-100v206h-3q-28 -105 -85.5 -163.5t-132.5 -58.5t-125.5 45zM448 848l-227 -194h-14l141 194h100z" />
    <glyph glyph-name="ucircumflex" unicode="&#xfb;" horiz-adv-x="615" 
d="M104.5 29q-50.5 45 -50.5 129v420h100v-451q0 -59 28.5 -90.5t71.5 -31.5q46 0 88.5 35.5t71.5 99t37 143.5v295h100v-578h-100v206h-3q-28 -105 -85.5 -163.5t-132.5 -58.5t-125.5 45zM303 848l167 -182h-80l-94 169l-83 -169h-84l160 182h14z" />
    <glyph glyph-name="udieresis" unicode="&#xfc;" horiz-adv-x="615" 
d="M104.5 29q-50.5 45 -50.5 129v420h100v-451q0 -59 28.5 -90.5t71.5 -31.5q46 0 88.5 35.5t71.5 99t37 143.5v295h100v-578h-100v206h-3q-28 -105 -85.5 -163.5t-132.5 -58.5t-125.5 45zM210 711.5q-11 10.5 -11 26.5t11 26.5t26 10.5q16 0 26.5 -10.5t10.5 -26.5
t-10.5 -26.5t-26.5 -10.5q-15 0 -26 10.5zM342.5 711.5q-10.5 10.5 -10.5 26.5t10.5 26.5t26.5 10.5q15 0 25.5 -10.5t10.5 -26.5t-10.5 -26.5t-25.5 -10.5q-16 0 -26.5 10.5z" />
    <glyph glyph-name="yacute" unicode="&#xfd;" horiz-adv-x="614" 
d="M50 -223l21 70q103 -68 185 -68q99 0 153 69.5t54 186.5v126h-3q-31 -87 -87.5 -132.5t-115.5 -45.5q-52 0 -97.5 33.5t-73 95t-27.5 141.5v325h100v-347q0 -106 36 -162t90 -56q34 0 70 23.5t65 69.5t43 108v364h100v-471q0 -105 -46.5 -184.5t-129.5 -123t-188 -43.5
q-76 0 -149 21zM453 848l-227 -194h-14l141 194h100z" />
    <glyph glyph-name="thorn" unicode="&#xfe;" horiz-adv-x="625" 
d="M480 559.5q48 -32.5 76.5 -93.5t28.5 -141q0 -104 -39.5 -181t-103.5 -117.5t-135 -40.5q-43 0 -83 15.5t-73 45.5v-216h-100v871h100v-265q45 78 103.5 116.5t121.5 38.5q56 0 104 -32.5zM384 57q46 33 73.5 95t27.5 146q0 77 -20 132.5t-54.5 83.5t-75.5 28
q-47 0 -95.5 -36.5t-88.5 -107.5v-318q31 -28 65 -42t68 -14q54 0 100 33z" />
    <glyph glyph-name="ydieresis" unicode="&#xff;" horiz-adv-x="614" 
d="M50 -223l21 70q103 -68 185 -68q99 0 153 69.5t54 186.5v126h-3q-31 -87 -87.5 -132.5t-115.5 -45.5q-52 0 -97.5 33.5t-73 95t-27.5 141.5v325h100v-347q0 -106 36 -162t90 -56q34 0 70 23.5t65 69.5t43 108v364h100v-471q0 -105 -46.5 -184.5t-129.5 -123t-188 -43.5
q-76 0 -149 21zM215 711.5q-11 10.5 -11 26.5t11 26.5t26 10.5q16 0 26.5 -10.5t10.5 -26.5t-10.5 -26.5t-26.5 -10.5q-15 0 -26 10.5zM347.5 711.5q-10.5 10.5 -10.5 26.5t10.5 26.5t26.5 10.5q15 0 25.5 -10.5t10.5 -26.5t-10.5 -26.5t-25.5 -10.5q-16 0 -26.5 10.5z" />
    <glyph glyph-name="Amacron" unicode="&#x100;" horiz-adv-x="721" 
d="M30 0l280 702h100l281 -702h-55q-13 82 -25 137t-36 117l-22 56h-299l-124 -310h-100zM403 685l-144 -361h288zM463 859h-212v14h212v-14z" />
    <glyph glyph-name="amacron" unicode="&#x101;" horiz-adv-x="606" 
d="M94 33.5q-51 48.5 -51 127.5q0 119 109.5 189t290.5 112q0 60 -29 91t-79 31q-54 0 -113 -32.5t-106 -86.5l-20 77q54 25 116 39.5t120 14.5q95 0 153 -42.5t58 -135.5v-418h-100v89q-44 -48 -100 -76t-111 -28q-87 0 -138 48.5zM361.5 41.5q47.5 24.5 81.5 61.5v345
q-161 -35 -230.5 -103t-69.5 -169q0 -77 36 -118t92 -41q43 0 90.5 24.5zM406 735h-212v14h212v-14z" />
    <glyph glyph-name="Abreve" unicode="&#x102;" horiz-adv-x="721" 
d="M30 0l280 702h100l281 -702h-55q-13 82 -25 137t-36 117l-22 56h-299l-124 -310h-100zM403 685l-144 -361h288zM247 860.5q-36 37.5 -39 99.5h9q11 -40 47 -61.5t95 -21.5q58 0 94.5 21.5t48.5 61.5h9q-5 -63 -41 -100t-111 -37q-76 0 -112 37.5z" />
    <glyph glyph-name="abreve" unicode="&#x103;" horiz-adv-x="606" 
d="M94 33.5q-51 48.5 -51 127.5q0 119 109.5 189t290.5 112q0 60 -29 91t-79 31q-54 0 -113 -32.5t-106 -86.5l-20 77q54 25 116 39.5t120 14.5q95 0 153 -42.5t58 -135.5v-418h-100v89q-44 -48 -100 -76t-111 -28q-87 0 -138 48.5zM361.5 41.5q47.5 24.5 81.5 61.5v345
q-161 -35 -230.5 -103t-69.5 -169q0 -77 36 -118t92 -41q43 0 90.5 24.5zM190 736.5q-36 37.5 -39 99.5h9q11 -40 47 -61.5t95 -21.5q58 0 94.5 21.5t48.5 61.5h9q-5 -63 -41 -100t-111 -37q-76 0 -112 37.5z" />
    <glyph glyph-name="Aogonek" unicode="&#x104;" horiz-adv-x="721" 
d="M30 0l280 702h100l281 -702h-55q-13 82 -25 137t-36 117l-22 56h-299l-124 -310h-100zM403 685l-144 -361h288zM546.5 -199q-35.5 32 -35.5 80q0 30 17.5 57.5t54 44.5t88.5 17h20v-10q-20 2 -29 2q-51 0 -79.5 -24.5t-28.5 -55.5q0 -32 30 -56.5t80 -24.5q25 0 52 6
l-23 -60q-23 -8 -51 -8q-60 0 -95.5 32z" />
    <glyph glyph-name="aogonek" unicode="&#x105;" horiz-adv-x="606" 
d="M568 -163l-23 -60q-23 -8 -51 -8q-60 0 -95.5 32t-35.5 80q0 30 17.5 57.5t54 44.5t88.5 17h-80v89q-44 -48 -100 -76t-111 -28q-87 0 -138 48.5t-51 127.5q0 119 109.5 189t290.5 112q0 60 -29 91t-79 31q-54 0 -113 -32.5t-106 -86.5l-20 77q54 25 116 39.5t120 14.5
q95 0 153 -42.5t58 -135.5v-428q-20 2 -29 2q-51 0 -79.5 -24.5t-28.5 -55.5q0 -32 30 -56.5t80 -24.5q25 0 52 6zM443 448q-161 -35 -230.5 -103t-69.5 -169q0 -77 36 -118t92 -41q43 0 90.5 24.5t81.5 61.5v345z" />
    <glyph glyph-name="Cacute" unicode="&#x106;" horiz-adv-x="698" 
d="M238 28.5q-89 43.5 -138.5 127t-49.5 200.5q0 116 51 199t139.5 125.5t199.5 42.5q106 0 221 -41l-5 -71q-20 11 -58 37q-49 31 -76.5 45t-55.5 14q-96 0 -167.5 -42.5t-110 -121.5t-38.5 -187q0 -99 43 -180.5t118 -128t168 -46.5q25 0 52.5 14.5t66.5 41.5q38 26 56 36
l7 -73q-117 -35 -218 -35q-116 0 -205 43.5zM544 972l-227 -194h-14l141 194h100z" />
    <glyph glyph-name="cacute" unicode="&#x107;" horiz-adv-x="592" 
d="M209.5 23.5q-80.5 38.5 -128 111t-47.5 171.5q0 133 82.5 211.5t246.5 78.5q97 0 193 -30l-13 -70q-48 40 -101 61t-99 21q-64 0 -111.5 -34t-72.5 -96.5t-25 -145.5q0 -89 27.5 -156t78 -103.5t116.5 -36.5q88 0 191 88l15 -70q-82 -39 -175 -39q-97 0 -177.5 38.5z
M483 848l-227 -194h-14l141 194h100z" />
    <glyph glyph-name="Cdotaccent" unicode="&#x10a;" horiz-adv-x="698" 
d="M238 28.5q-89 43.5 -138.5 127t-49.5 200.5q0 116 51 199t139.5 125.5t199.5 42.5q106 0 221 -41l-5 -71q-20 11 -58 37q-49 31 -76.5 45t-55.5 14q-96 0 -167.5 -42.5t-110 -121.5t-38.5 -187q0 -99 43 -180.5t118 -128t168 -46.5q25 0 52.5 14.5t66.5 41.5q38 26 56 36
l7 -73q-117 -35 -218 -35q-116 0 -205 43.5zM360.5 840.5q-15.5 15.5 -15.5 38.5t15.5 38.5t38.5 15.5t38.5 -15.5t15.5 -38.5q0 -22 -16 -38t-38 -16q-23 0 -38.5 15.5z" />
    <glyph glyph-name="cdotaccent" unicode="&#x10b;" horiz-adv-x="592" 
d="M209.5 23.5q-80.5 38.5 -128 111t-47.5 171.5q0 133 82.5 211.5t246.5 78.5q97 0 193 -30l-13 -70q-48 40 -101 61t-99 21q-64 0 -111.5 -34t-72.5 -96.5t-25 -145.5q0 -89 27.5 -156t78 -103.5t116.5 -36.5q88 0 191 88l15 -70q-82 -39 -175 -39q-97 0 -177.5 38.5z
M268.5 716.5q-15.5 15.5 -15.5 38.5t15.5 38.5t38.5 15.5t38.5 -15.5t15.5 -38.5q0 -22 -16 -38t-38 -16q-23 0 -38.5 15.5z" />
    <glyph glyph-name="Ccaron" unicode="&#x10c;" horiz-adv-x="698" 
d="M238 28.5q-89 43.5 -138.5 127t-49.5 200.5q0 116 51 199t139.5 125.5t199.5 42.5q106 0 221 -41l-5 -71q-20 11 -58 37q-49 31 -76.5 45t-55.5 14q-96 0 -167.5 -42.5t-110 -121.5t-38.5 -187q0 -99 43 -180.5t118 -128t168 -46.5q25 0 52.5 14.5t66.5 41.5q38 26 56 36
l7 -73q-117 -35 -218 -35q-116 0 -205 43.5zM380 804l93 168h80l-166 -182h-15v1l-159 181h83z" />
    <glyph glyph-name="ccaron" unicode="&#x10d;" horiz-adv-x="592" 
d="M209.5 23.5q-80.5 38.5 -128 111t-47.5 171.5q0 133 82.5 211.5t246.5 78.5q97 0 193 -30l-13 -70q-48 40 -101 61t-99 21q-64 0 -111.5 -34t-72.5 -96.5t-25 -145.5q0 -89 27.5 -156t78 -103.5t116.5 -36.5q88 0 191 88l15 -70q-82 -39 -175 -39q-97 0 -177.5 38.5z
M288 680l93 168h80l-166 -182h-15v1l-159 181h83z" />
    <glyph glyph-name="Dcaron" unicode="&#x10e;" horiz-adv-x="687" 
d="M65 0v702h252q152 0 236 -85t84 -253q0 -124 -46.5 -206t-123 -120t-168.5 -38h-234zM254 15q91 0 153 31.5t96 108.5t34 209q0 169 -64.5 246.5t-201.5 76.5h-106v-672h89zM306 804l93 168h80l-166 -182h-15v1l-159 181h83z" />
    <glyph glyph-name="dcaron" unicode="&#x10f;" horiz-adv-x="784" 
d="M152.5 18q-52.5 33 -85.5 98.5t-33 158.5q0 99 39 171t108 109.5t158 37.5q52 0 111 -15v124h100v-702h-100v128q-22 -69 -73 -106t-113 -37q-59 0 -111.5 33zM396 57q43 48 54 135v371q-45 12 -85 12q-71 0 -124.5 -35t-83 -102.5t-29.5 -163.5q0 -84 24 -144
t62.5 -90.5t82.5 -30.5q56 0 99 48zM686 580h-14v211h78z" />
    <glyph glyph-name="Dcroat" unicode="&#x110;" horiz-adv-x="759" 
d="M389 702q152 0 236 -85t84 -253q0 -124 -46.5 -206t-123 -120t-168.5 -38h-234v345h-67v14h67v343h252zM326 15q91 0 153 31.5t96 108t34 209.5q0 169 -64.5 246.5t-200.5 76.5h-107v-328h70v-14h-70v-330h89z" />
    <glyph glyph-name="dcroat" unicode="&#x111;" horiz-adv-x="618" 
d="M617 639v-14h-67v-625h-100v128q-22 -69 -73 -106t-113 -37q-59 0 -111.5 33t-85.5 98.5t-33 158.5q0 99 39 171t108 109.5t158 37.5q52 0 111 -15v47h-70v14h70v63h100v-63h67zM450 563q-45 12 -85 12q-71 0 -124.5 -35t-83 -102.5t-29.5 -163.5q0 -84 24 -144
t62.5 -90.5t82.5 -30.5q56 0 99 48t54 135v371z" />
    <glyph glyph-name="Emacron" unicode="&#x112;" horiz-adv-x="651" 
d="M165 14q152 0 247 11.5t179 44.5v-70h-526v702h511v-70q-74 31 -169.5 43.5t-241.5 12.5v-286h358v-14h-358v-374zM427 859h-212v14h212v-14z" />
    <glyph glyph-name="emacron" unicode="&#x113;" horiz-adv-x="625" 
d="M189 25.5q-71 39.5 -113 111.5t-42 165q0 92 42.5 158.5t110.5 100.5t143 34q67 0 124.5 -27.5t92.5 -81.5t35 -132q0 -32 -9 -70h-439q2 -86 28.5 -150.5t71.5 -99.5t101 -35q53 0 111 36t114 108l21 -70q-56 -44 -116.5 -65.5t-120.5 -21.5q-84 0 -155 39.5zM486 298
q6 33 6 63q0 71 -22 120.5t-59 74.5t-80 25q-49 0 -94 -33t-74 -97t-29 -153h352zM415 735h-212v14h212v-14z" />
    <glyph glyph-name="Edotaccent" unicode="&#x116;" horiz-adv-x="651" 
d="M165 14q152 0 247 11.5t179 44.5v-70h-526v702h511v-70q-74 31 -169.5 43.5t-241.5 12.5v-286h358v-14h-358v-374zM285.5 840.5q-15.5 15.5 -15.5 38.5t15.5 38.5t38.5 15.5t38.5 -15.5t15.5 -38.5q0 -22 -16 -38t-38 -16q-23 0 -38.5 15.5z" />
    <glyph glyph-name="edotaccent" unicode="&#x117;" horiz-adv-x="625" 
d="M189 25.5q-71 39.5 -113 111.5t-42 165q0 92 42.5 158.5t110.5 100.5t143 34q67 0 124.5 -27.5t92.5 -81.5t35 -132q0 -32 -9 -70h-439q2 -86 28.5 -150.5t71.5 -99.5t101 -35q53 0 111 36t114 108l21 -70q-56 -44 -116.5 -65.5t-120.5 -21.5q-84 0 -155 39.5zM486 298
q6 33 6 63q0 71 -22 120.5t-59 74.5t-80 25q-49 0 -94 -33t-74 -97t-29 -153h352zM274.5 716.5q-15.5 15.5 -15.5 38.5t15.5 38.5t38.5 15.5t38.5 -15.5t15.5 -38.5q0 -22 -16 -38t-38 -16q-23 0 -38.5 15.5z" />
    <glyph glyph-name="Eogonek" unicode="&#x118;" horiz-adv-x="651" 
d="M616 -159l-23 -60q-23 -8 -51 -8q-60 0 -95.5 32t-35.5 80q0 40 29.5 72.5t84.5 42.5h-460v702h511v-70q-74 31 -169.5 43.5t-241.5 12.5v-286h358v-14h-358v-374q152 0 247 11.5t179 44.5v-76q-20 2 -29 2q-51 0 -79.5 -24.5t-28.5 -55.5q0 -32 30 -56.5t80 -24.5
q25 0 52 6z" />
    <glyph glyph-name="eogonek" unicode="&#x119;" horiz-adv-x="625" 
d="M272 -43q-18 -21 -18 -46q0 -32 30 -56.5t80 -24.5q25 0 52 6l-23 -60q-23 -8 -51 -8q-60 0 -95.5 32t-35.5 80q0 35 22.5 65t66.5 44q-74 10 -134.5 51t-96 109t-35.5 153q0 92 42.5 158.5t110.5 100.5t143 34q67 0 124.5 -27.5t92.5 -81.5t35 -132q0 -32 -9 -70h-439
q2 -86 28.5 -150.5t71.5 -99.5t101 -35q53 0 111 36t114 108l21 -70q-89 -70 -190 -84h-1q-22 -3 -46 -3q-13 0 -20 1q-34 -9 -52 -30zM237 548q-45 -33 -74 -97t-29 -153h352q6 33 6 63q0 71 -22 120.5t-59 74.5t-80 25q-49 0 -94 -33z" />
    <glyph glyph-name="Ecaron" unicode="&#x11a;" horiz-adv-x="651" 
d="M165 14q152 0 247 11.5t179 44.5v-70h-526v702h511v-70q-74 31 -169.5 43.5t-241.5 12.5v-286h358v-14h-358v-374zM305 804l93 168h80l-166 -182h-15v1l-159 181h83z" />
    <glyph glyph-name="ecaron" unicode="&#x11b;" horiz-adv-x="625" 
d="M189 25.5q-71 39.5 -113 111.5t-42 165q0 92 42.5 158.5t110.5 100.5t143 34q67 0 124.5 -27.5t92.5 -81.5t35 -132q0 -32 -9 -70h-439q2 -86 28.5 -150.5t71.5 -99.5t101 -35q53 0 111 36t114 108l21 -70q-56 -44 -116.5 -65.5t-120.5 -21.5q-84 0 -155 39.5zM486 298
q6 33 6 63q0 71 -22 120.5t-59 74.5t-80 25q-49 0 -94 -33t-74 -97t-29 -153h352zM294 680l93 168h80l-166 -182h-15v1l-159 181h83z" />
    <glyph glyph-name="Gbreve" unicode="&#x11e;" horiz-adv-x="749" 
d="M238.5 29.5q-87.5 44.5 -138 130t-50.5 203.5q0 110 51.5 190t141 121.5t200.5 41.5q117 0 233 -44l-5 -70q-66 49 -131 73.5t-124 24.5q-77 0 -137.5 -39t-94.5 -115t-34 -183q0 -112 40.5 -194t109.5 -125.5t153 -43.5q68 0 136 34v333h100v-326q-132 -56 -253 -56
q-110 0 -197.5 44.5zM312 860.5q-36 37.5 -39 99.5h9q11 -40 47 -61.5t95 -21.5q58 0 94.5 21.5t48.5 61.5h9q-5 -63 -41 -100t-111 -37q-76 0 -112 37.5z" />
    <glyph glyph-name="gbreve" unicode="&#x11f;" horiz-adv-x="617" 
d="M39 -227l15 70q109 -70 191 -70q95 0 147 76.5t52 201.5v68h-3q-25 -64 -74.5 -100t-107.5 -36q-57 0 -107 32t-81 100t-31 170q0 89 32.5 159.5t88.5 110t124 39.5q80 0 159 -56v40h100v-471q0 -106 -45.5 -186t-127.5 -123t-189 -43q-68 0 -143 18zM355.5 33.5
q33.5 20.5 57 60.5t31.5 95v332q-70 51 -129 51q-56 0 -96.5 -40t-62 -105t-21.5 -140q0 -83 20 -145.5t55 -95.5t77 -33q35 0 68.5 20.5zM196 736.5q-36 37.5 -39 99.5h9q11 -40 47 -61.5t95 -21.5q58 0 94.5 21.5t48.5 61.5h9q-5 -63 -41 -100t-111 -37q-76 0 -112 37.5z
" />
    <glyph glyph-name="Gdotaccent" unicode="&#x120;" horiz-adv-x="749" 
d="M238.5 29.5q-87.5 44.5 -138 130t-50.5 203.5q0 110 51.5 190t141 121.5t200.5 41.5q117 0 233 -44l-5 -70q-66 49 -131 73.5t-124 24.5q-77 0 -137.5 -39t-94.5 -115t-34 -183q0 -112 40.5 -194t109.5 -125.5t153 -43.5q68 0 136 34v333h100v-326q-132 -56 -253 -56
q-110 0 -197.5 44.5zM386.5 840.5q-15.5 15.5 -15.5 38.5t15.5 38.5t38.5 15.5t38.5 -15.5t15.5 -38.5q0 -22 -16 -38t-38 -16q-23 0 -38.5 15.5z" />
    <glyph glyph-name="gdotaccent" unicode="&#x121;" horiz-adv-x="617" 
d="M39 -227l15 70q109 -70 191 -70q95 0 147 76.5t52 201.5v68h-3q-25 -64 -74.5 -100t-107.5 -36q-57 0 -107 32t-81 100t-31 170q0 89 32.5 159.5t88.5 110t124 39.5q80 0 159 -56v40h100v-471q0 -106 -45.5 -186t-127.5 -123t-189 -43q-68 0 -143 18zM355.5 33.5
q33.5 20.5 57 60.5t31.5 95v332q-70 51 -129 51q-56 0 -96.5 -40t-62 -105t-21.5 -140q0 -83 20 -145.5t55 -95.5t77 -33q35 0 68.5 20.5zM270.5 716.5q-15.5 15.5 -15.5 38.5t15.5 38.5t38.5 15.5t38.5 -15.5t15.5 -38.5q0 -22 -16 -38t-38 -16q-23 0 -38.5 15.5z" />
    <glyph glyph-name="uni0122" unicode="&#x122;" horiz-adv-x="749" 
d="M238.5 29.5q-87.5 44.5 -138 130t-50.5 203.5q0 110 51.5 190t141 121.5t200.5 41.5q117 0 233 -44l-5 -70q-66 49 -131 73.5t-124 24.5q-77 0 -137.5 -39t-94.5 -115t-34 -183q0 -112 40.5 -194t109.5 -125.5t153 -43.5q68 0 136 34v333h100v-326q-132 -56 -253 -56
q-110 0 -197.5 44.5zM426 -174l-78 -135l18 90l116 132z" />
    <glyph glyph-name="uni0123" unicode="&#x123;" horiz-adv-x="617" 
d="M39 -227l15 70q109 -70 191 -70q95 0 147 76.5t52 201.5v68h-3q-25 -64 -74.5 -100t-107.5 -36q-57 0 -107 32t-81 100t-31 170q0 89 32.5 159.5t88.5 110t124 39.5q80 0 159 -56v40h100v-471q0 -106 -45.5 -186t-127.5 -123t-189 -43q-68 0 -143 18zM355.5 33.5
q33.5 20.5 57 60.5t31.5 95v332q-70 51 -129 51q-56 0 -96.5 -40t-62 -105t-21.5 -140q0 -83 20 -145.5t55 -95.5t77 -33q35 0 68.5 20.5zM244 668q-1 7 -1 22q0 60 33.5 113.5t99.5 89.5l4 -5q-67 -55 -67 -127q0 -41 23 -93h-92z" />
    <glyph glyph-name="Hbar" unicode="&#x126;" horiz-adv-x="682" 
d="M517 554v148h100v-702h-100v390h-352v-390h-100v702h100v-148h352zM165 540v-135h352v135h-352z" />
    <glyph glyph-name="hbar" unicode="&#x127;" horiz-adv-x="692" 
d="M524.5 574q36.5 -21 58 -61t21.5 -94v-419h-100l3 421q0 63 -29.5 99t-75.5 36q-41 0 -86 -37.5t-79.5 -114.5t-45.5 -187v-217h-100v594h-49v14h49v94h100v-94h88v-14h-88v-289h2q19 93 58 158.5t89 98.5t104 33q44 0 80.5 -21z" />
    <glyph glyph-name="Imacron" unicode="&#x12a;" horiz-adv-x="220" 
d="M162 0h-100v702h100v-702zM215 859h-212v14h212v-14z" />
    <glyph glyph-name="imacron" unicode="&#x12b;" horiz-adv-x="227" 
d="M150 0h-100v578h100v-578zM220 735h-212v14h212v-14z" />
    <glyph glyph-name="Iogonek" unicode="&#x12e;" horiz-adv-x="291" 
d="M230 -161l-22 -60q-24 -8 -52 -8q-60 0 -95.5 32t-35.5 79q0 43 33 76.5t94 41.5h-46v702h100v-710q-22 2 -29 2q-51 0 -80 -24.5t-29 -55.5q0 -32 30 -57t81 -25q26 0 51 7z" />
    <glyph glyph-name="iogonek" unicode="&#x12f;" horiz-adv-x="304" 
d="M214 0h-100v578h100v-578zM143.5 716.5q-15.5 15.5 -15.5 38.5t15.5 38.5t38.5 15.5t38.5 -15.5t15.5 -38.5q0 -22 -16 -38t-38 -16q-23 0 -38.5 15.5zM69.5 -199q-35.5 32 -35.5 80q0 30 17.5 57.5t54 44.5t88.5 17h20v-10q-20 2 -29 2q-51 0 -79.5 -24.5t-28.5 -55.5
q0 -32 30 -56.5t80 -24.5q25 0 52 6l-23 -60q-23 -8 -51 -8q-60 0 -95.5 32z" />
    <glyph glyph-name="Idotaccent" unicode="&#x130;" horiz-adv-x="238" 
d="M169 0h-100v702h100v-702zM80.5 840.5q-15.5 15.5 -15.5 38.5t15.5 38.5t38.5 15.5t38.5 -15.5t15.5 -38.5q0 -22 -16 -38t-38 -16q-23 0 -38.5 15.5z" />
    <glyph glyph-name="dotlessi" unicode="&#x131;" horiz-adv-x="206" 
d="M151 0h-100v578h100v-578z" />
    <glyph glyph-name="uni0136" unicode="&#x136;" horiz-adv-x="698" 
d="M65 0v702h100v-349l232 192q49 42 83.5 79.5t50.5 77.5h70l-339 -283q82 45 141 45q65 0 89 -57l168 -407h-100l-169 398q-13 30 -48 30q-31 0 -74.5 -22t-87.5 -56l-16 -13v-337h-100zM351 -174l-78 -135l18 90l116 132z" />
    <glyph glyph-name="uni0137" unicode="&#x137;" horiz-adv-x="578" 
d="M51 0v702h100v-347l364 207v-68q-53 1 -131.5 -31.5t-159.5 -79.5v-1q35 12 68 12q37 0 65 -15.5t42 -47.5l143 -331h-100l-148 331q-17 36 -54 36q-33 0 -89 -29v-338h-100zM290 -174l-78 -135l18 90l116 132z" />
    <glyph glyph-name="Lacute" unicode="&#x139;" horiz-adv-x="561" 
d="M65 0v702h100v-689q120 0 200 12.5t152 44.5v-70h-452zM293 972l-227 -194h-14l141 194h100z" />
    <glyph glyph-name="lacute" unicode="&#x13a;" horiz-adv-x="249" 
d="M184 0h-100v702h100v-702zM319 961l-227 -194h-14l141 194h100z" />
    <glyph glyph-name="uni013B" unicode="&#x13b;" horiz-adv-x="561" 
d="M65 0v702h100v-689q120 0 200 12.5t152 44.5v-70h-452zM277 -174l-78 -135l18 90l116 132z" />
    <glyph glyph-name="uni013C" unicode="&#x13c;" horiz-adv-x="244" 
d="M179 0h-100v702h100v-702zM106 -174l-78 -135l18 90l116 132z" />
    <glyph glyph-name="Lcaron" unicode="&#x13d;" horiz-adv-x="622" 
d="M65 0v702h100v-689q120 0 200 12.5t152 44.5v-70h-452zM450 580h-14v211h78z" />
    <glyph glyph-name="lcaron" unicode="&#x13e;" horiz-adv-x="413" 
d="M170 0h-100v702h100v-702zM285 596h-14v211h78z" />
    <glyph glyph-name="Lslash" unicode="&#x141;" horiz-adv-x="555" 
d="M159 13q119 0 199 12.5t153 44.5v-70h-452v317l-63 -25v14l63 24v372h100v-333l85 33v-13l-85 -33v-343z" />
    <glyph glyph-name="lslash" unicode="&#x142;" horiz-adv-x="243" 
d="M181 575l67 26v-13l-67 -26v-562h-100v523l-81 -32v14l81 31v166h100v-127z" />
    <glyph glyph-name="Nacute" unicode="&#x143;" horiz-adv-x="690" 
d="M53 0q14 56 18.5 109.5t4.5 127.5v465h78l453 -660v438q0 129 -24 222h61q-24 -93 -24 -222v-480h-89l-441 645v-408q0 -71 5 -126.5t19 -110.5h-61zM491 972l-227 -194h-14l141 194h100z" />
    <glyph glyph-name="nacute" unicode="&#x144;" horiz-adv-x="633" 
d="M530.5 558q38.5 -37 38.5 -109v-449h-100v452q0 55 -21 82.5t-57 27.5t-79.5 -25t-86 -71t-74.5 -107v-359h-100v578h100v-194q60 104 137 157.5t148 53.5q56 0 94.5 -37zM472 848l-227 -194h-14l141 194h100z" />
    <glyph glyph-name="uni0145" unicode="&#x145;" horiz-adv-x="690" 
d="M53 0q14 56 18.5 109.5t4.5 127.5v465h78l453 -660v438q0 129 -24 222h61q-24 -93 -24 -222v-480h-89l-441 645v-408q0 -71 5 -126.5t19 -110.5h-61zM346 -174l-78 -135l18 90l116 132z" />
    <glyph glyph-name="uni0146" unicode="&#x146;" horiz-adv-x="633" 
d="M530.5 558q38.5 -37 38.5 -109v-449h-100v452q0 55 -21 82.5t-57 27.5t-79.5 -25t-86 -71t-74.5 -107v-359h-100v578h100v-194q60 104 137 157.5t148 53.5q56 0 94.5 -37zM328 -174l-78 -135l18 90l116 132z" />
    <glyph glyph-name="Ncaron" unicode="&#x147;" horiz-adv-x="690" 
d="M53 0q14 56 18.5 109.5t4.5 127.5v465h78l453 -660v438q0 129 -24 222h61q-24 -93 -24 -222v-480h-89l-441 645v-408q0 -71 5 -126.5t19 -110.5h-61zM326 804l93 168h80l-166 -182h-15v1l-159 181h83z" />
    <glyph glyph-name="ncaron" unicode="&#x148;" horiz-adv-x="633" 
d="M530.5 558q38.5 -37 38.5 -109v-449h-100v452q0 55 -21 82.5t-57 27.5t-79.5 -25t-86 -71t-74.5 -107v-359h-100v578h100v-194q60 104 137 157.5t148 53.5q56 0 94.5 -37zM308 680l93 168h80l-166 -182h-15v1l-159 181h83z" />
    <glyph glyph-name="Eng" unicode="&#x14a;" horiz-adv-x="690" 
d="M644 702q-24 -93 -24 -222v-480q0 -77 -32 -138.5t-131 -61.5l-29 70q79 0 129 34t50 96h-76l-441 645v-408q0 -71 5 -126.5t19 -110.5h-61q14 56 18.5 109.5t4.5 127.5v465h78l453 -660v438q0 129 -24 222h61z" />
    <glyph glyph-name="eng" unicode="&#x14b;" horiz-adv-x="633" 
d="M530.5 558q38.5 -37 38.5 -109v-449q0 -45 -20 -87t-65.5 -70t-117.5 -28v14q48 2 70.5 28.5t27.5 60t5 82.5v452q0 55 -21 82.5t-57 27.5t-79.5 -25t-86 -71t-74.5 -107v-359h-100v578h100v-194q60 104 137 157.5t148 53.5q56 0 94.5 -37z" />
    <glyph glyph-name="Omacron" unicode="&#x14c;" horiz-adv-x="754" 
d="M198 32q-74 49 -111 132t-37 185q0 107 37 191t110.5 131.5t179.5 47.5t179.5 -47.5t110.5 -131.5t37 -191q0 -102 -37 -185t-111 -132t-179 -49t-179 49zM549 98.5q55 101.5 55 250.5q0 94 -22.5 174.5t-73.5 131t-131 50.5q-119 0 -173 -103t-54 -253q0 -93 23.5 -173
t74.5 -129.5t129 -49.5q117 0 172 101.5zM480 859h-212v14h212v-14z" />
    <glyph glyph-name="omacron" unicode="&#x14d;" horiz-adv-x="627" 
d="M164 20.5q-63 37.5 -96.5 106.5t-33.5 160q0 92 33.5 162t96.5 108t150 38q84 0 147 -38.5t97 -108t34 -161.5q0 -91 -34 -160t-97 -106.5t-147 -37.5q-87 0 -150 37.5zM411.5 37q41.5 40 63.5 106.5t22 143.5q0 75 -22 142.5t-63.5 109.5t-97.5 42q-60 0 -101.5 -41.5
t-62 -109t-20.5 -143.5q0 -78 20.5 -144t62 -106t101.5 -40q56 0 97.5 40zM416 735h-212v14h212v-14z" />
    <glyph glyph-name="Ohungarumlaut" unicode="&#x150;" horiz-adv-x="754" 
d="M198 32q-74 49 -111 132t-37 185q0 107 37 191t110.5 131.5t179.5 47.5t179.5 -47.5t110.5 -131.5t37 -191q0 -102 -37 -185t-111 -132t-179 -49t-179 49zM549 98.5q55 101.5 55 250.5q0 94 -22.5 174.5t-73.5 131t-131 50.5q-119 0 -173 -103t-54 -253q0 -93 23.5 -173
t74.5 -129.5t129 -49.5q117 0 172 101.5zM432 972l-227 -194h-14l141 194h100zM562 971l-227 -195h-14l141 195h100z" />
    <glyph glyph-name="ohungarumlaut" unicode="&#x151;" horiz-adv-x="627" 
d="M164 20.5q-63 37.5 -96.5 106.5t-33.5 160q0 92 33.5 162t96.5 108t150 38q84 0 147 -38.5t97 -108t34 -161.5q0 -91 -34 -160t-97 -106.5t-147 -37.5q-87 0 -150 37.5zM411.5 37q41.5 40 63.5 106.5t22 143.5q0 75 -22 142.5t-63.5 109.5t-97.5 42q-60 0 -101.5 -41.5
t-62 -109t-20.5 -143.5q0 -78 20.5 -144t62 -106t101.5 -40q56 0 97.5 40zM369 848l-227 -194h-14l141 194h100zM499 847l-227 -195h-14l141 195h100z" />
    <glyph glyph-name="OE" unicode="&#x152;" horiz-adv-x="1018" 
d="M433 0q-128 0 -214 46t-127.5 124.5t-41.5 176.5q0 88 42.5 169.5t129 133.5t211.5 52h510v-70q-74 35 -142 45.5t-151 10.5h-117v-290h351v-14h-351v-370h115q95 0 178 13.5t132 42.5v-70h-525zM433 688q-109 -4 -172 -57.5t-87 -128.5t-24 -155q0 -77 28 -151
t91.5 -125t163.5 -57v674z" />
    <glyph glyph-name="oe" unicode="&#x153;" horiz-adv-x="1092" 
d="M913 35q58 36 114 108l21 -70q-56 -44 -116.5 -65.5t-121.5 -21.5q-78 0 -146 35t-110 98q-35 -65 -97 -100.5t-143 -35.5q-87 0 -150 37.5t-96.5 106.5t-33.5 160q0 92 33.5 162t96.5 108t150 38q79 0 138.5 -33.5t95.5 -94.5q41 62 108 95t141 33q67 0 124.5 -27.5
t92.5 -81.5t35 -132q0 -32 -9 -70h-439q2 -86 28.5 -150.5t71.5 -99.5t101 -35q53 0 111 36zM411.5 37q41.5 40 63.5 106.5t22 143.5q0 75 -22 142.5t-63.5 109.5t-97.5 42q-60 0 -101.5 -41.5t-62 -109t-20.5 -143.5q0 -78 20.5 -144t62 -106t101.5 -40q56 0 97.5 40z
M704 548q-45 -33 -74 -97t-29 -153h351q7 31 7 63q0 71 -22.5 120.5t-59 74.5t-79.5 25q-49 0 -94 -33z" />
    <glyph glyph-name="Racute" unicode="&#x154;" horiz-adv-x="633" 
d="M590 0h-100l-147 289q-17 35 -54 35q-23 0 -57 -17t-67 -47v-260h-100v702h287q68 0 115 -24t69.5 -63.5t22.5 -85.5q0 -44 -18.5 -85.5t-56 -71.5t-90.5 -39q22 -8 35 -19.5t22 -30.5zM405 366q31 23 47.5 62.5t16.5 83.5q0 48 -20 88t-60.5 64t-98.5 24h-125v-414
q41 34 84 53.5t84 17.5t72 21zM462 972l-227 -194h-14l141 194h100z" />
    <glyph glyph-name="racute" unicode="&#x155;" horiz-adv-x="497" 
d="M51 0v578h100v-289h1q34 140 99 219.5t148 79.5q28 0 57 -10l-14 -70q-38 19 -75 19q-74 0 -129 -73t-87 -205v-249h-100zM393 848l-227 -194h-14l141 194h100z" />
    <glyph glyph-name="uni0156" unicode="&#x156;" horiz-adv-x="633" 
d="M590 0h-100l-147 289q-17 35 -54 35q-23 0 -57 -17t-67 -47v-260h-100v702h287q68 0 115 -24t69.5 -63.5t22.5 -85.5q0 -44 -18.5 -85.5t-56 -71.5t-90.5 -39q22 -8 35 -19.5t22 -30.5zM405 366q31 23 47.5 62.5t16.5 83.5q0 48 -20 88t-60.5 64t-98.5 24h-125v-414
q41 34 84 53.5t84 17.5t72 21zM318 -174l-78 -135l18 90l116 132z" />
    <glyph glyph-name="uni0157" unicode="&#x157;" horiz-adv-x="540" 
d="M62 0v578h100v-289h1q34 140 99 219.5t148 79.5q28 0 57 -10l-14 -70q-38 19 -75 19q-74 0 -129 -73t-87 -205v-249h-100zM79 -174l-78 -135l18 90l116 132z" />
    <glyph glyph-name="Rcaron" unicode="&#x158;" horiz-adv-x="633" 
d="M590 0h-100l-147 289q-17 35 -54 35q-23 0 -57 -17t-67 -47v-260h-100v702h287q68 0 115 -24t69.5 -63.5t22.5 -85.5q0 -44 -18.5 -85.5t-56 -71.5t-90.5 -39q22 -8 35 -19.5t22 -30.5zM405 366q31 23 47.5 62.5t16.5 83.5q0 48 -20 88t-60.5 64t-98.5 24h-125v-414
q41 34 84 53.5t84 17.5t72 21zM298 804l93 168h80l-166 -182h-15v1l-159 181h83z" />
    <glyph glyph-name="rcaron" unicode="&#x159;" horiz-adv-x="497" 
d="M51 0v578h100v-289h1q34 140 99 219.5t148 79.5q28 0 57 -10l-14 -70q-38 19 -75 19q-74 0 -129 -73t-87 -205v-249h-100zM228 680l93 168h80l-166 -182h-15v1l-159 181h83z" />
    <glyph glyph-name="Sacute" unicode="&#x15a;" horiz-adv-x="666" 
d="M45 38l8 70q168 -104 284 -104q84 0 137 38t53 100q0 9 -4 31q-9 40 -45 72.5t-83 57t-122 56.5q-77 33 -122.5 57t-77.5 55.5t-35 71.5q-4 57 34 96.5t104.5 59t148.5 19.5q122 0 251 -39l-9 -70q-71 43 -141 68t-122 25q-89 0 -141 -29.5t-48 -82.5q2 -30 30.5 -56
t70.5 -47.5t113 -53.5q90 -41 145.5 -71.5t96 -72.5t44.5 -94q5 -66 -32.5 -113t-106.5 -71t-157 -24q-128 0 -274 51zM479 972l-227 -194h-14l141 194h100z" />
    <glyph glyph-name="sacute" unicode="&#x15b;" horiz-adv-x="555" 
d="M153 -6q-55 10 -102 27l17 70q62 -45 122.5 -64t113.5 -19q65 0 108.5 25.5t46.5 67.5q0 33 -28 62.5t-68.5 53.5t-110.5 60q-68 34 -110.5 59t-71.5 55.5t-29 64.5q0 70 77.5 104.5t192.5 34.5q101 0 193 -24l-11 -70q-53 33 -120.5 53.5t-122.5 20.5q-62 0 -100.5 -21
t-38.5 -61q0 -29 39 -55.5t123 -67.5q78 -38 128 -67.5t85.5 -69.5t35.5 -88q-3 -82 -78 -121.5t-182 -39.5q-54 0 -109 10zM443 848l-227 -194h-14l141 194h100z" />
    <glyph glyph-name="Scedilla" unicode="&#x15e;" horiz-adv-x="666" 
d="M584 84.5q-36 -46.5 -102 -71t-152 -26.5l-11 -36h45q36 0 57.5 -17t21.5 -49q0 -66 -54 -96t-133 -30q-20 0 -30 1v10q68 -1 113 26t45 81q0 28 -12 44t-35 16h-45l15 50q-124 3 -262 51l8 70q168 -104 284 -104q84 0 137 38t53 100q0 9 -4 31q-9 40 -45 72.5t-83 57
t-122 56.5q-77 33 -122.5 57t-77.5 55.5t-35 71.5q-4 57 34 96.5t104.5 59t148.5 19.5q122 0 251 -39l-9 -70q-71 43 -141 68t-122 25q-89 0 -141 -29.5t-48 -82.5q2 -30 30.5 -56t70.5 -47.5t113 -53.5q90 -41 145.5 -71.5t96 -72.5t44.5 -94q5 -64 -31 -110.5z" />
    <glyph glyph-name="scedilla" unicode="&#x15f;" horiz-adv-x="555" 
d="M447 25.5q-72 -39.5 -176 -41.5l-13 -41h45q36 0 57.5 -17t21.5 -49q0 -73 -64.5 -102t-152.5 -24v11q68 -1 113 26t45 81q0 28 -12 44t-35 16h-45l18 55q-109 3 -198 37l17 70q62 -45 122.5 -64t113.5 -19q65 0 108.5 25.5t46.5 67.5q0 33 -28 62.5t-68.5 53.5
t-110.5 60q-68 34 -110.5 59t-71.5 55.5t-29 64.5q0 70 77.5 104.5t192.5 34.5q101 0 193 -24l-11 -70q-53 33 -120.5 53.5t-122.5 20.5q-62 0 -100.5 -21t-38.5 -61q0 -29 39 -55.5t123 -67.5q78 -38 128 -67.5t85.5 -69.5t35.5 -88q-3 -80 -75 -119.5z" />
    <glyph glyph-name="Scaron" unicode="&#x160;" horiz-adv-x="666" 
d="M45 38l8 70q168 -104 284 -104q84 0 137 38t53 100q0 9 -4 31q-9 40 -45 72.5t-83 57t-122 56.5q-77 33 -122.5 57t-77.5 55.5t-35 71.5q-4 57 34 96.5t104.5 59t148.5 19.5q122 0 251 -39l-9 -70q-71 43 -141 68t-122 25q-89 0 -141 -29.5t-48 -82.5q2 -30 30.5 -56
t70.5 -47.5t113 -53.5q90 -41 145.5 -71.5t96 -72.5t44.5 -94q5 -66 -32.5 -113t-106.5 -71t-157 -24q-128 0 -274 51zM315 804l93 168h80l-166 -182h-15v1l-159 181h83z" />
    <glyph glyph-name="scaron" unicode="&#x161;" horiz-adv-x="555" 
d="M153 -6q-55 10 -102 27l17 70q62 -45 122.5 -64t113.5 -19q65 0 108.5 25.5t46.5 67.5q0 33 -28 62.5t-68.5 53.5t-110.5 60q-68 34 -110.5 59t-71.5 55.5t-29 64.5q0 70 77.5 104.5t192.5 34.5q101 0 193 -24l-11 -70q-53 33 -120.5 53.5t-122.5 20.5q-62 0 -100.5 -21
t-38.5 -61q0 -29 39 -55.5t123 -67.5q78 -38 128 -67.5t85.5 -69.5t35.5 -88q-3 -82 -78 -121.5t-182 -39.5q-54 0 -109 10zM249 680l93 168h80l-166 -182h-15v1l-159 181h83z" />
    <glyph glyph-name="uni0162" unicode="&#x162;" horiz-adv-x="627" 
d="M265 688q-61 0 -100.5 -5.5t-69 -17t-72.5 -33.5v70h585v-70q-61 32 -109 44t-134 12v-688h-100v688zM212 -230q68 -1 113 26t45 81q0 28 -12 44t-35 16h-45l19 63h23l-15 -49h45q36 0 57.5 -17t21.5 -49q0 -66 -54 -96t-133 -30q-20 0 -30 1v10z" />
    <glyph glyph-name="uni0163" unicode="&#x163;" horiz-adv-x="455" 
d="M212 -10l-12 -39h45q36 0 57.5 -17t21.5 -49q0 -66 -54 -96t-133 -30q-20 0 -30 1v10q68 -1 113 26t45 81q0 28 -12 44t-35 16h-45l18 60q-52 21 -84 66t-32 107v394h-60v14h74q36 40 54 97.5t18 126.5h13l1 -224h153v-14h-153v-460q0 -53 24 -82t60 -29q42 0 85.5 40
t73.5 110l28 -61q-27 -50 -73.5 -75.5t-99.5 -25.5q-31 0 -61 9z" />
    <glyph glyph-name="Tcaron" unicode="&#x164;" horiz-adv-x="627" 
d="M265 688q-61 0 -100.5 -5.5t-69 -17t-72.5 -33.5v70h585v-70q-61 32 -109 44t-134 12v-688h-100v688zM301 804l93 168h80l-166 -182h-15v1l-159 181h83z" />
    <glyph glyph-name="tcaron" unicode="&#x165;" horiz-adv-x="553" 
d="M176.5 3.5q-45.5 22.5 -73.5 65.5t-28 101v394h-60v14h74q36 40 54 97.5t18 126.5h13l1 -224h153v-14h-153v-460q0 -53 24 -82t60 -29q42 0 85.5 40t73.5 110l28 -61q-27 -50 -73.5 -75.5t-99.5 -25.5q-51 0 -96.5 22.5zM400 580h-14v211h78z" />
    <glyph glyph-name="Tbar" unicode="&#x166;" horiz-adv-x="627" 
d="M608 632q-61 32 -109 44t-134 12v-329h74v-14h-74v-345h-100v345h-63v14h63v329q-61 0 -100.5 -5.5t-69 -17t-72.5 -33.5v70h585v-70z" />
    <glyph glyph-name="tbar" unicode="&#x167;" horiz-adv-x="447" 
d="M439 82q-27 -50 -74 -75.5t-100 -25.5q-51 0 -96.5 22.5t-73 65.5t-27.5 101v113h-61v14h61v267h-60v14h74q35 40 53 98t18 126h14l1 -224h152v-14h-152v-267h106v-14h-106v-179q0 -53 23.5 -82t59.5 -29q42 0 85.5 40t74.5 110z" />
    <glyph glyph-name="Umacron" unicode="&#x16a;" horiz-adv-x="662" 
d="M190 13q-63 28 -99 83.5t-36 136.5v469h101v-518q0 -96 51.5 -140.5t126.5 -44.5q74 0 124.5 44.5t50.5 140.5v518h100v-469q0 -120 -76 -184t-199 -64q-81 0 -144 28zM433 859h-212v14h212v-14z" />
    <glyph glyph-name="umacron" unicode="&#x16b;" horiz-adv-x="615" 
d="M104.5 29q-50.5 45 -50.5 129v420h100v-451q0 -59 28.5 -90.5t71.5 -31.5q46 0 88.5 35.5t71.5 99t37 143.5v295h100v-578h-100v206h-3q-28 -105 -85.5 -163.5t-132.5 -58.5t-125.5 45zM405 735h-212v14h212v-14z" />
    <glyph glyph-name="Uring" unicode="&#x16e;" horiz-adv-x="662" 
d="M190 13q-63 28 -99 83.5t-36 136.5v469h101v-518q0 -96 51.5 -140.5t126.5 -44.5q74 0 124.5 44.5t50.5 140.5v518h100v-469q0 -120 -76 -184t-199 -64q-81 0 -144 28zM265.5 814.5q-24.5 24.5 -24.5 59.5t24.5 59.5t59.5 24.5t59.5 -24.5t24.5 -59.5t-24.5 -59.5
t-59.5 -24.5t-59.5 24.5zM367.5 819.5q16.5 20.5 16.5 54.5q0 35 -16.5 55t-42.5 20t-42.5 -20t-16.5 -55q0 -34 16.5 -54.5t42.5 -20.5t42.5 20.5z" />
    <glyph glyph-name="uring" unicode="&#x16f;" horiz-adv-x="615" 
d="M104.5 29q-50.5 45 -50.5 129v420h100v-451q0 -59 28.5 -90.5t71.5 -31.5q46 0 88.5 35.5t71.5 99t37 143.5v295h100v-578h-100v206h-3q-28 -105 -85.5 -163.5t-132.5 -58.5t-125.5 45zM238.5 690.5q-24.5 24.5 -24.5 59.5t24.5 59.5t59.5 24.5t59.5 -24.5t24.5 -59.5
t-24.5 -59.5t-59.5 -24.5t-59.5 24.5zM340.5 695.5q16.5 20.5 16.5 54.5q0 35 -16.5 55t-42.5 20t-42.5 -20t-16.5 -55q0 -34 16.5 -54.5t42.5 -20.5t42.5 20.5z" />
    <glyph glyph-name="Uhungarumlaut" unicode="&#x170;" horiz-adv-x="662" 
d="M190 13q-63 28 -99 83.5t-36 136.5v469h101v-518q0 -96 51.5 -140.5t126.5 -44.5q74 0 124.5 44.5t50.5 140.5v518h100v-469q0 -120 -76 -184t-199 -64q-81 0 -144 28zM385 972l-227 -194h-14l141 194h100zM515 971l-227 -195h-14l141 195h100z" />
    <glyph glyph-name="uhungarumlaut" unicode="&#x171;" horiz-adv-x="615" 
d="M104.5 29q-50.5 45 -50.5 129v420h100v-451q0 -59 28.5 -90.5t71.5 -31.5q46 0 88.5 35.5t71.5 99t37 143.5v295h100v-578h-100v206h-3q-28 -105 -85.5 -163.5t-132.5 -58.5t-125.5 45zM358 848l-227 -194h-14l141 194h100zM488 847l-227 -195h-14l141 195h100z" />
    <glyph glyph-name="Uogonek" unicode="&#x172;" horiz-adv-x="662" 
d="M509 702h100v-469q0 -102 -56 -164t-151 -78v-4l-15 1q-24 -3 -50 -3q-34 -8 -53 -29.5t-19 -46.5q0 -32 30 -56.5t80 -24.5q25 0 52 6l-23 -60q-23 -8 -51 -8q-60 0 -95.5 32t-35.5 80q0 34 22 63.5t64 44.5q-114 6 -183.5 69.5t-69.5 177.5v469h101v-518
q0 -96 51.5 -140.5t126.5 -44.5q74 0 124.5 44.5t50.5 140.5v518z" />
    <glyph glyph-name="uogonek" unicode="&#x173;" horiz-adv-x="615" 
d="M576 -163l-23 -60q-23 -8 -51 -8q-60 0 -95.5 32t-35.5 80q0 30 17.5 57.5t54 44.5t88.5 17h-80v206h-3q-28 -105 -85.5 -163.5t-132.5 -58.5t-125.5 45t-50.5 129v420h100v-451q0 -59 28.5 -90.5t71.5 -31.5q46 0 88.5 35.5t71.5 99t37 143.5v295h100v-588q-20 2 -29 2
q-51 0 -79.5 -24.5t-28.5 -55.5q0 -32 30 -56.5t80 -24.5q25 0 52 6z" />
    <glyph glyph-name="Wcircumflex" unicode="&#x174;" horiz-adv-x="1085" 
d="M1040 702l-241 -702h-100l-157 457l-157 -457h-100l-241 702h100l235 -683l157 457l-78 226h100l235 -683l130 380q48 138 48 264q0 26 -1 39h70zM552 972l167 -182h-80l-94 169l-83 -169h-84l160 182h14z" />
    <glyph glyph-name="wcircumflex" unicode="&#x175;" horiz-adv-x="994" 
d="M252 0l-223 578h99l187 -479l184 479h43l201 -516l111 285q33 84 33 183q0 32 -1 48h70l-224 -578h-66l-190 486l-188 -486h-36zM526 848l167 -182h-80l-94 169l-83 -169h-84l160 182h14z" />
    <glyph glyph-name="Ycircumflex" unicode="&#x176;" horiz-adv-x="583" 
d="M553 702l-204 -390v-312h-100v312l-204 390h100l197 -377l112 215q17 31 23.5 61t6.5 69l-1 32h70zM292 972l167 -182h-80l-94 169l-83 -169h-84l160 182h14z" />
    <glyph glyph-name="ycircumflex" unicode="&#x177;" horiz-adv-x="614" 
d="M50 -223l21 70q103 -68 185 -68q99 0 153 69.5t54 186.5v126h-3q-31 -87 -87.5 -132.5t-115.5 -45.5q-52 0 -97.5 33.5t-73 95t-27.5 141.5v325h100v-347q0 -106 36 -162t90 -56q34 0 70 23.5t65 69.5t43 108v364h100v-471q0 -105 -46.5 -184.5t-129.5 -123t-188 -43.5
q-76 0 -149 21zM307 848l167 -182h-80l-94 169l-83 -169h-84l160 182h14z" />
    <glyph glyph-name="Ydieresis" unicode="&#x178;" horiz-adv-x="583" 
d="M553 702l-204 -390v-312h-100v312l-204 390h100l197 -377l112 215q17 31 23.5 61t6.5 69l-1 32h70zM200 835.5q-11 10.5 -11 26.5t11 26.5t26 10.5q16 0 26.5 -10.5t10.5 -26.5t-10.5 -26.5t-26.5 -10.5q-15 0 -26 10.5zM332.5 835.5q-10.5 10.5 -10.5 26.5t10.5 26.5
t26.5 10.5q15 0 25.5 -10.5t10.5 -26.5t-10.5 -26.5t-25.5 -10.5q-16 0 -26.5 10.5z" />
    <glyph glyph-name="Zacute" unicode="&#x179;" horiz-adv-x="678" 
d="M516 688q-143 0 -239.5 -11.5t-238.5 -44.5v70h593l-495 -688q199 0 308 12t194 44v-70h-620zM480 972l-227 -194h-14l141 194h100z" />
    <glyph glyph-name="zacute" unicode="&#x17a;" horiz-adv-x="590" 
d="M428 564q-139 0 -224.5 -11t-162.5 -46v71h500l-396 -564q139 0 228 12.5t175 43.5v-70h-518zM441 848l-227 -194h-14l141 194h100z" />
    <glyph glyph-name="Zdotaccent" unicode="&#x17b;" horiz-adv-x="678" 
d="M516 688q-143 0 -239.5 -11.5t-238.5 -44.5v70h593l-495 -688q199 0 308 12t194 44v-70h-620zM295.5 840.5q-15.5 15.5 -15.5 38.5t15.5 38.5t38.5 15.5t38.5 -15.5t15.5 -38.5q0 -22 -16 -38t-38 -16q-23 0 -38.5 15.5z" />
    <glyph glyph-name="zdotaccent" unicode="&#x17c;" horiz-adv-x="590" 
d="M428 564q-139 0 -224.5 -11t-162.5 -46v71h500l-396 -564q139 0 228 12.5t175 43.5v-70h-518zM257.5 716.5q-15.5 15.5 -15.5 38.5t15.5 38.5t38.5 15.5t38.5 -15.5t15.5 -38.5q0 -22 -16 -38t-38 -16q-23 0 -38.5 15.5z" />
    <glyph glyph-name="Zcaron" unicode="&#x17d;" horiz-adv-x="678" 
d="M516 688q-143 0 -239.5 -11.5t-238.5 -44.5v70h593l-495 -688q199 0 308 12t194 44v-70h-620zM315 804l93 168h80l-166 -182h-15v1l-159 181h83z" />
    <glyph glyph-name="zcaron" unicode="&#x17e;" horiz-adv-x="590" 
d="M428 564q-139 0 -224.5 -11t-162.5 -46v71h500l-396 -564q139 0 228 12.5t175 43.5v-70h-518zM276 680l93 168h80l-166 -182h-15v1l-159 181h83z" />
    <glyph glyph-name="uni0218" unicode="&#x218;" horiz-adv-x="666" 
d="M45 38l8 70q168 -104 284 -104q84 0 137 38t53 100q0 9 -4 31q-9 40 -45 72.5t-83 57t-122 56.5q-77 33 -122.5 57t-77.5 55.5t-35 71.5q-4 57 34 96.5t104.5 59t148.5 19.5q122 0 251 -39l-9 -70q-71 43 -141 68t-122 25q-89 0 -141 -29.5t-48 -82.5q2 -30 30.5 -56
t70.5 -47.5t113 -53.5q90 -41 145.5 -71.5t96 -72.5t44.5 -94q5 -66 -32.5 -113t-106.5 -71t-157 -24q-128 0 -274 51zM335 -174l-78 -135l18 90l116 132z" />
    <glyph glyph-name="uni0219" unicode="&#x219;" horiz-adv-x="555" 
d="M153 -6q-55 10 -102 27l17 70q62 -45 122.5 -64t113.5 -19q65 0 108.5 25.5t46.5 67.5q0 33 -28 62.5t-68.5 53.5t-110.5 60q-68 34 -110.5 59t-71.5 55.5t-29 64.5q0 70 77.5 104.5t192.5 34.5q101 0 193 -24l-11 -70q-53 33 -120.5 53.5t-122.5 20.5q-62 0 -100.5 -21
t-38.5 -61q0 -29 39 -55.5t123 -67.5q78 -38 128 -67.5t85.5 -69.5t35.5 -88q-3 -82 -78 -121.5t-182 -39.5q-54 0 -109 10zM234 -182l-78 -135l18 90l116 132z" />
    <glyph glyph-name="uni021A" unicode="&#x21a;" horiz-adv-x="627" 
d="M265 688q-61 0 -100.5 -5.5t-69 -17t-72.5 -33.5v70h585v-70q-61 32 -109 44t-134 12v-688h-100v688zM321 -174l-78 -135l18 90l116 132z" />
    <glyph glyph-name="uni021B" unicode="&#x21b;" horiz-adv-x="455" 
d="M176.5 3.5q-45.5 22.5 -73.5 65.5t-28 101v394h-60v14h74q36 40 54 97.5t18 126.5h13l1 -224h153v-14h-153v-460q0 -53 24 -82t60 -29q42 0 85.5 40t73.5 110l28 -61q-27 -50 -73.5 -75.5t-99.5 -25.5q-51 0 -96.5 22.5zM216 -174l-78 -135l18 90l116 132z" />
    <glyph glyph-name="gravecomb" 
d="M-115 654h-14l-227 194h100z" />
    <glyph glyph-name="acutecomb" 
d="M-115 848l-227 -194h-14l141 194h100z" />
    <glyph glyph-name="uni0302" 
d="M-232 848l167 -182h-80l-94 169l-83 -169h-84l160 182h14z" />
    <glyph glyph-name="tildecomb" 
d="M-161 714q-26 9 -67 26q-36 15 -56.5 22t-35.5 7q-40 0 -40 -47h-10q0 50 25 73.5t53 23.5q23 0 50 -9t67 -26q38 -15 56.5 -21.5t33.5 -6.5q16 0 22.5 9t6.5 34h11q0 -50 -19.5 -72t-49.5 -22q-21 0 -47 9z" />
    <glyph glyph-name="uni0304" 
d="M-51 735h-212v14h212v-14z" />
    <glyph glyph-name="uni0306" 
d="M-309 736.5q-36 37.5 -39 99.5h9q11 -40 47 -61.5t95 -21.5q58 0 94.5 21.5t48.5 61.5h9q-5 -63 -41 -100t-111 -37q-76 0 -112 37.5z" />
    <glyph glyph-name="uni0307" 
d="M-137.5 716.5q-15.5 15.5 -15.5 38.5t15.5 38.5t38.5 15.5t38.5 -15.5t15.5 -38.5q0 -22 -16 -38t-38 -16q-23 0 -38.5 15.5z" />
    <glyph glyph-name="uni0308" 
d="M-240 711.5q-11 10.5 -11 26.5t11 26.5t26 10.5q16 0 26.5 -10.5t10.5 -26.5t-10.5 -26.5t-26.5 -10.5q-15 0 -26 10.5zM-107.5 711.5q-10.5 10.5 -10.5 26.5t10.5 26.5t26.5 10.5q15 0 25.5 -10.5t10.5 -26.5t-10.5 -26.5t-25.5 -10.5q-16 0 -26.5 10.5z" />
    <glyph glyph-name="uni030A" 
d="M-188.5 690.5q-24.5 24.5 -24.5 59.5t24.5 59.5t59.5 24.5t59.5 -24.5t24.5 -59.5t-24.5 -59.5t-59.5 -24.5t-59.5 24.5zM-86.5 695.5q16.5 20.5 16.5 54.5q0 35 -16.5 55t-42.5 20t-42.5 -20t-16.5 -55q0 -34 16.5 -54.5t42.5 -20.5t42.5 20.5z" />
    <glyph glyph-name="uni030B" 
d="M-190 848l-227 -194h-14l141 194h100zM-60 847l-227 -195h-14l141 195h100z" />
    <glyph glyph-name="uni030C" 
d="M-238 680l93 168h80l-166 -182h-15v1l-159 181h83z" />
    <glyph glyph-name="uni0312" 
d="M-181 668q-1 7 -1 22q0 60 33.5 113.5t99.5 89.5l4 -5q-67 -55 -67 -127q0 -41 23 -93h-92z" />
    <glyph glyph-name="uni0326" 
d="M-172 -174l-78 -135l18 90l116 132z" />
    <glyph glyph-name="uni0327" 
d="M-277 -230q68 -1 113 26t45 81q0 28 -12 44t-35 16h-45l19 63h23l-15 -49h45q36 0 57.5 -17t21.5 -49q0 -66 -54 -96t-133 -30q-20 0 -30 1v10z" />
    <glyph glyph-name="uni0328" 
d="M-189.5 -199q-35.5 32 -35.5 80q0 30 17.5 57.5t54 44.5t88.5 17h20v-10q-20 2 -29 2q-51 0 -79.5 -24.5t-28.5 -55.5q0 -32 30 -56.5t80 -24.5q25 0 52 6l-23 -60q-23 -8 -51 -8q-60 0 -95.5 32z" />
    <glyph glyph-name="Wgrave" unicode="&#x1e80;" horiz-adv-x="1085" 
d="M1040 702l-241 -702h-100l-157 457l-157 -457h-100l-241 702h100l235 -683l157 457l-78 226h100l235 -683l130 380q48 138 48 264q0 26 -1 39h70zM681 778h-14l-227 194h100z" />
    <glyph glyph-name="wgrave" unicode="&#x1e81;" horiz-adv-x="994" 
d="M252 0l-223 578h99l187 -479l184 479h43l201 -516l111 285q33 84 33 183q0 32 -1 48h70l-224 -578h-66l-190 486l-188 -486h-36zM655 654h-14l-227 194h100z" />
    <glyph glyph-name="Wacute" unicode="&#x1e82;" horiz-adv-x="1085" 
d="M1040 702l-241 -702h-100l-157 457l-157 -457h-100l-241 702h100l235 -683l157 457l-78 226h100l235 -683l130 380q48 138 48 264q0 26 -1 39h70zM697 972l-227 -194h-14l141 194h100z" />
    <glyph glyph-name="wacute" unicode="&#x1e83;" horiz-adv-x="994" 
d="M252 0l-223 578h99l187 -479l184 479h43l201 -516l111 285q33 84 33 183q0 32 -1 48h70l-224 -578h-66l-190 486l-188 -486h-36zM671 848l-227 -194h-14l141 194h100z" />
    <glyph glyph-name="Wdieresis" unicode="&#x1e84;" horiz-adv-x="1085" 
d="M1040 702l-241 -702h-100l-157 457l-157 -457h-100l-241 702h100l235 -683l157 457l-78 226h100l235 -683l130 380q48 138 48 264q0 26 -1 39h70zM459 835.5q-11 10.5 -11 26.5t11 26.5t26 10.5q16 0 26.5 -10.5t10.5 -26.5t-10.5 -26.5t-26.5 -10.5q-15 0 -26 10.5z
M591.5 835.5q-10.5 10.5 -10.5 26.5t10.5 26.5t26.5 10.5q15 0 25.5 -10.5t10.5 -26.5t-10.5 -26.5t-25.5 -10.5q-16 0 -26.5 10.5z" />
    <glyph glyph-name="wdieresis" unicode="&#x1e85;" horiz-adv-x="994" 
d="M252 0l-223 578h99l187 -479l184 479h43l201 -516l111 285q33 84 33 183q0 32 -1 48h70l-224 -578h-66l-190 486l-188 -486h-36zM433 711.5q-11 10.5 -11 26.5t11 26.5t26 10.5q16 0 26.5 -10.5t10.5 -26.5t-10.5 -26.5t-26.5 -10.5q-15 0 -26 10.5zM565.5 711.5
q-10.5 10.5 -10.5 26.5t10.5 26.5t26.5 10.5q15 0 25.5 -10.5t10.5 -26.5t-10.5 -26.5t-25.5 -10.5q-16 0 -26.5 10.5z" />
    <glyph glyph-name="uni1E9E" unicode="&#x1e9e;" horiz-adv-x="689" 
d="M333.5 19.5q-49.5 33.5 -70.5 97.5l13 4q27 -52 65.5 -78t79.5 -26q35 0 66 18.5t49.5 51t18.5 71.5q0 44 -25 91t-75 90t-122 74l171 292h-164q-70 0 -131.5 -39t-61.5 -156v-507h-100v469q0 94 31 148t92 76t158 22h201l-137 -235q128 -58 192.5 -139t64.5 -161
q0 -60 -29.5 -105t-76.5 -68.5t-99 -23.5q-61 0 -110.5 33.5z" />
    <glyph glyph-name="Ygrave" unicode="&#x1ef2;" horiz-adv-x="583" 
d="M553 702l-204 -390v-312h-100v312l-204 390h100l197 -377l112 215q17 31 23.5 61t6.5 69l-1 32h70zM421 778h-14l-227 194h100z" />
    <glyph glyph-name="ygrave" unicode="&#x1ef3;" horiz-adv-x="614" 
d="M50 -223l21 70q103 -68 185 -68q99 0 153 69.5t54 186.5v126h-3q-31 -87 -87.5 -132.5t-115.5 -45.5q-52 0 -97.5 33.5t-73 95t-27.5 141.5v325h100v-347q0 -106 36 -162t90 -56q34 0 70 23.5t65 69.5t43 108v364h100v-471q0 -105 -46.5 -184.5t-129.5 -123t-188 -43.5
q-76 0 -149 21zM437 654h-14l-227 194h100z" />
    <glyph glyph-name="endash" unicode="&#x2013;" horiz-adv-x="470" 
d="M425 300h-380v14h380v-14z" />
    <glyph glyph-name="emdash" unicode="&#x2014;" horiz-adv-x="544" 
d="M499 300h-454v14h454v-14z" />
    <glyph glyph-name="quoteleft" unicode="&#x2018;" horiz-adv-x="239" 
d="M180 789h14l-56 -211h-80z" />
    <glyph glyph-name="quoteright" unicode="&#x2019;" horiz-adv-x="206" 
d="M38 578h-14l56 211h80z" />
    <glyph glyph-name="quotesinglbase" unicode="&#x201a;" horiz-adv-x="226" 
d="M59 -129h-14l56 211h80z" />
    <glyph glyph-name="quotedblleft" unicode="&#x201c;" horiz-adv-x="343" 
d="M180 771h14l-56 -211h-80zM284 771h14l-57 -211h-80z" />
    <glyph glyph-name="quotedblright" unicode="&#x201d;" horiz-adv-x="354" 
d="M188 789h14l-56 -211h-80zM296 789h13l-56 -211h-80z" />
    <glyph glyph-name="quotedblbase" unicode="&#x201e;" horiz-adv-x="311" 
d="M46 -129h-14l56 211h80zM144 -129h-14l56 211h80z" />
    <glyph glyph-name="dagger" unicode="&#x2020;" horiz-adv-x="492" 
d="M238 150q0 111 -9 172t-34 148q22 26 31 49t10 57q-29 -1 -65 -22q-22 -11 -36 -16.5t-33 -5.5q-27 0 -42 16t-15 39t15 39.5t42 16.5q19 0 33 -7t36 -21q18 -13 32.5 -20t32.5 -8q-1 25 -7 42.5t-19 41.5q-11 22 -16.5 36.5t-5.5 33.5q0 30 17 46.5t41 16.5
q23 0 40 -16.5t17 -46.5q0 -19 -5.5 -35t-17.5 -37q-12 -22 -18.5 -40t-7.5 -42q19 0 33.5 7t34.5 21q19 14 34.5 21t33.5 7q27 0 42 -16.5t15 -39.5t-15 -39t-42 -16q-18 0 -33.5 5.5t-34.5 16.5q-20 11 -34.5 16.5t-33.5 5.5q1 -34 10 -56.5t31 -49.5q-25 -87 -34 -148
t-9 -172h-14z" />
    <glyph glyph-name="daggerdbl" unicode="&#x2021;" horiz-adv-x="492" 
d="M239 150q0 50 -13 101.5t-38 80.5q14 22 21.5 47t10.5 61q-12 -2 -24.5 -7.5t-24.5 -11.5q-22 -11 -36 -16.5t-33 -5.5q-27 0 -42 16.5t-15 39.5q0 22 15 38.5t42 16.5q18 0 33.5 -7t35.5 -20q3 -2 17.5 -10.5t30.5 -12.5q12 45 17 118q-17 -1 -32 -6.5t-33 -16.5
q-20 -12 -35 -17.5t-34 -5.5q-27 0 -42 16t-15 39t15 39.5t42 16.5q19 0 34 -7.5t34 -21.5q22 -14 35.5 -20.5t30.5 -7.5q-1 25 -7 42.5t-19 41.5q-11 21 -16.5 36.5t-5.5 34.5q0 30 17.5 47t40.5 17t40 -17t17 -47q0 -20 -6 -36t-17 -37q-13 -22 -19.5 -40.5t-7.5 -41.5
q18 0 32.5 7.5t35.5 21.5q22 14 36 21t33 7q27 0 42 -16.5t15 -39.5t-15 -39t-42 -16q-18 0 -32.5 5.5t-35.5 17.5q-20 12 -35 17.5t-34 5.5q2 -64 17 -119q18 4 50 24q20 13 35.5 20t34.5 7q27 0 42 -16.5t15 -38.5q0 -23 -15 -39.5t-42 -16.5q-19 0 -33.5 5t-35.5 16
q-30 17 -51 20q6 -62 36 -108q-27 -29 -41.5 -80.5t-14.5 -101.5h-11z" />
    <glyph glyph-name="bullet" unicode="&#x2022;" horiz-adv-x="305" 
d="M76 179q-31 31 -31 77q0 45 31 76t77 31q45 0 76 -31t31 -76q0 -46 -31 -77t-76 -31q-46 0 -77 31z" />
    <glyph glyph-name="ellipsis" unicode="&#x2026;" horiz-adv-x="533" 
d="M223.5 -1.5q-15.5 15.5 -15.5 38.5t15.5 38.5t38.5 15.5t38.5 -15.5t15.5 -38.5q0 -22 -15.5 -38t-38.5 -16t-38.5 15.5zM47.5 -1.5q-15.5 15.5 -15.5 38.5t15.5 38.5t38.5 15.5t38.5 -15.5t15.5 -38.5q0 -22 -15.5 -38t-38.5 -16t-38.5 15.5zM396.5 -1.5
q-15.5 15.5 -15.5 38.5t15.5 38.5t38.5 15.5t38.5 -15.5t15.5 -38.5q0 -22 -15.5 -38t-38.5 -16t-38.5 15.5z" />
    <glyph glyph-name="perthousand" unicode="&#x2030;" horiz-adv-x="1207" 
d="M172 -67h-13l414 835h13zM53.5 416.5q-38.5 52.5 -38.5 131.5q0 80 38 131.5t127 51.5t127 -51.5t38 -131.5q0 -79 -38.5 -131.5t-126.5 -52.5t-126.5 52.5zM265 415q30 45 30 133q0 87 -30 131.5t-85 44.5t-85 -44.5t-30 -131.5q0 -88 30 -133t85 -45t85 45zM436 30
q-38 53 -38 132q0 80 38 131.5t127 51.5t127 -51.5t38 -131.5q0 -79 -38.5 -132t-126.5 -53q-89 0 -127 53zM870.5 30q-38.5 53 -38.5 132q0 80 38 131.5t127 51.5t127 -51.5t38 -131.5q0 -79 -38 -132t-127 -53q-88 0 -126.5 53zM648 29q30 45 30 133q0 87 -30 131.5
t-85 44.5q-56 0 -85.5 -44.5t-29.5 -131.5q0 -88 29.5 -133t85.5 -45q55 0 85 45zM1082 29q30 45 30 133q0 87 -30 131.5t-85 44.5t-85 -44.5t-30 -131.5q0 -88 30 -133t85 -45t85 45z" />
    <glyph glyph-name="guilsinglleft" unicode="&#x2039;" horiz-adv-x="420" 
d="M45 324l330 216v-14l-311 -204l311 -208v-14l-330 220v4z" />
    <glyph glyph-name="guilsinglright" unicode="&#x203a;" horiz-adv-x="420" 
d="M45 526v14l330 -216v-4l-330 -220v14l311 208z" />
    <glyph glyph-name="fraction" unicode="&#x2044;" horiz-adv-x="545" 
d="M83 0h-14l414 702h14z" />
    <glyph glyph-name="Euro" unicode="&#x20ac;" horiz-adv-x="757" 
d="M558 50.5q57 44.5 102 132.5l29 -71q-44 -61 -108 -92.5t-136 -31.5q-76 0 -145.5 34.5t-119 101.5t-63.5 160h-72v13h70q-4 25 -4 61q0 17 1 26h-67v13h68q8 92 53 164.5t115.5 113t153.5 40.5q63 0 128.5 -25t127.5 -76l-41 -64q-107 145 -231 145q-57 0 -103.5 -39
t-74.5 -107.5t-31 -151.5h202v-13h-202v-9q0 -28 4 -78h198v-13h-196q12 -86 45.5 -149t81 -96t99.5 -33q59 0 116 44.5z" />
    <glyph glyph-name="trademark" unicode="&#x2122;" horiz-adv-x="566" 
d="M135 697q-31 0 -46.5 -4t-38.5 -15v24h205v-24q-21 11 -38 15t-47 4v-241h-35v241zM250 456q16 45 23 93l18 153h35l78 -220l74 220h25l34 -246h-35l-29 213l-72 -213h-24l-83 237l-17 -144q-4 -31 -4 -64q0 -20 1 -29h-24z" />
    <glyph glyph-name="minus" unicode="&#x2212;" horiz-adv-x="457" 
d="M412 306h-367v13h367v-13z" />
    <glyph glyph-name="i.loclTRK" horiz-adv-x="246" 
d="M156 0h-100v578h100v-578zM85.5 716.5q-15.5 15.5 -15.5 38.5t15.5 38.5t38.5 15.5t38.5 -15.5t15.5 -38.5q0 -22 -16 -38t-38 -16q-23 0 -38.5 15.5z" />
    </font>
</defs>
</svg>
